<mxfile host="app.diagrams.net" modified="2024-06-17T11:21:24.767Z" agent="Mozilla/5.0 (X11; Linux x86_64) AppleWebKit/537.36 (KHTML, like Gecko) Chrome/106.0.0.0 Safari/537.36" version="24.5.4" etag="r-XDYl78UxA8HkKJ3w2A" type="device" pages="9">
  <diagram id="iUrxjZt1SJq22fJkOuBf" name="Page-1">
    <mxGraphModel dx="880" dy="382" grid="1" gridSize="10" guides="1" tooltips="1" connect="1" arrows="1" fold="1" page="1" pageScale="1" pageWidth="827" pageHeight="1169" math="0" shadow="0">
      <root>
        <mxCell id="0" />
        <mxCell id="1" parent="0" />
        <mxCell id="ca_i9T38x5-RtTC7sIzJ-1" value="Upload soil image" style="whiteSpace=wrap;html=1;" vertex="1" parent="1">
          <mxGeometry x="90" y="170" width="120" height="60" as="geometry" />
        </mxCell>
        <mxCell id="ca_i9T38x5-RtTC7sIzJ-2" value="System Architecture" style="text;html=1;align=center;verticalAlign=middle;resizable=0;points=[];autosize=1;strokeColor=none;fillColor=none;fontStyle=5;fontSize=19;" vertex="1" parent="1">
          <mxGeometry x="310" y="45" width="190" height="40" as="geometry" />
        </mxCell>
        <mxCell id="ca_i9T38x5-RtTC7sIzJ-5" value="Train dataset on teachable machine" style="whiteSpace=wrap;html=1;" vertex="1" parent="1">
          <mxGeometry x="350" y="145" width="90" height="90" as="geometry" />
        </mxCell>
        <mxCell id="ca_i9T38x5-RtTC7sIzJ-7" value="Data values" style="whiteSpace=wrap;html=1;" vertex="1" parent="1">
          <mxGeometry x="520" y="320" width="120" height="60" as="geometry" />
        </mxCell>
        <mxCell id="ca_i9T38x5-RtTC7sIzJ-8" value="Predict soil type" style="whiteSpace=wrap;html=1;" vertex="1" parent="1">
          <mxGeometry x="240" y="320" width="120" height="60" as="geometry" />
        </mxCell>
        <mxCell id="ca_i9T38x5-RtTC7sIzJ-9" value="Data base" style="shape=cylinder3;whiteSpace=wrap;html=1;boundedLbl=1;backgroundOutline=1;size=15;" vertex="1" parent="1">
          <mxGeometry x="90" y="390" width="60" height="80" as="geometry" />
        </mxCell>
        <mxCell id="ca_i9T38x5-RtTC7sIzJ-10" value="Rain fall,&lt;div&gt;Temperature,&lt;/div&gt;&lt;div&gt;Phosphorus,&lt;/div&gt;&lt;div&gt;Potassium,&lt;/div&gt;&lt;div&gt;Nitrogen,&lt;/div&gt;&lt;div&gt;Humidity&lt;/div&gt;" style="whiteSpace=wrap;html=1;" vertex="1" parent="1">
          <mxGeometry x="255" y="465" width="90" height="120" as="geometry" />
        </mxCell>
        <mxCell id="ca_i9T38x5-RtTC7sIzJ-14" value="Data pre-processing" style="whiteSpace=wrap;html=1;" vertex="1" parent="1">
          <mxGeometry x="510" y="510" width="120" height="60" as="geometry" />
        </mxCell>
        <mxCell id="ca_i9T38x5-RtTC7sIzJ-15" value="Apply Random Forest" style="whiteSpace=wrap;html=1;" vertex="1" parent="1">
          <mxGeometry x="530" y="680" width="120" height="60" as="geometry" />
        </mxCell>
        <mxCell id="ca_i9T38x5-RtTC7sIzJ-16" value="Bussiness logic" style="whiteSpace=wrap;html=1;" vertex="1" parent="1">
          <mxGeometry x="240" y="680" width="120" height="60" as="geometry" />
        </mxCell>
        <mxCell id="ca_i9T38x5-RtTC7sIzJ-17" value="Suggest crop&amp;nbsp;" style="whiteSpace=wrap;html=1;" vertex="1" parent="1">
          <mxGeometry x="380" y="930" width="120" height="60" as="geometry" />
        </mxCell>
        <mxCell id="ca_i9T38x5-RtTC7sIzJ-18" style="edgeStyle=orthogonalEdgeStyle;rounded=0;orthogonalLoop=1;jettySize=auto;html=1;exitX=1;exitY=0.5;exitDx=0;exitDy=0;entryX=-0.022;entryY=0.616;entryDx=0;entryDy=0;entryPerimeter=0;" edge="1" parent="1" source="ca_i9T38x5-RtTC7sIzJ-1" target="ca_i9T38x5-RtTC7sIzJ-5">
          <mxGeometry relative="1" as="geometry" />
        </mxCell>
        <mxCell id="ca_i9T38x5-RtTC7sIzJ-19" style="edgeStyle=orthogonalEdgeStyle;rounded=0;orthogonalLoop=1;jettySize=auto;html=1;exitX=0.5;exitY=1;exitDx=0;exitDy=0;entryX=0.42;entryY=-0.047;entryDx=0;entryDy=0;entryPerimeter=0;" edge="1" parent="1" source="ca_i9T38x5-RtTC7sIzJ-5" target="ca_i9T38x5-RtTC7sIzJ-8">
          <mxGeometry relative="1" as="geometry" />
        </mxCell>
        <mxCell id="ca_i9T38x5-RtTC7sIzJ-20" value="" style="edgeStyle=none;orthogonalLoop=1;jettySize=auto;html=1;rounded=0;entryX=0.38;entryY=-0.04;entryDx=0;entryDy=0;entryPerimeter=0;exitX=-0.027;exitY=0.34;exitDx=0;exitDy=0;exitPerimeter=0;" edge="1" parent="1" source="ca_i9T38x5-RtTC7sIzJ-8" target="ca_i9T38x5-RtTC7sIzJ-9">
          <mxGeometry width="100" relative="1" as="geometry">
            <mxPoint x="230" y="340" as="sourcePoint" />
            <mxPoint x="290" y="340" as="targetPoint" />
            <Array as="points">
              <mxPoint x="113" y="340" />
            </Array>
          </mxGeometry>
        </mxCell>
        <mxCell id="ca_i9T38x5-RtTC7sIzJ-22" value="" style="edgeStyle=none;orthogonalLoop=1;jettySize=auto;html=1;rounded=0;entryX=0.5;entryY=0;entryDx=0;entryDy=0;exitX=0.417;exitY=1.093;exitDx=0;exitDy=0;exitPerimeter=0;" edge="1" parent="1" source="ca_i9T38x5-RtTC7sIzJ-7" target="ca_i9T38x5-RtTC7sIzJ-14">
          <mxGeometry width="100" relative="1" as="geometry">
            <mxPoint x="540" y="370" as="sourcePoint" />
            <mxPoint x="640" y="370" as="targetPoint" />
            <Array as="points" />
          </mxGeometry>
        </mxCell>
        <mxCell id="ca_i9T38x5-RtTC7sIzJ-23" value="" style="edgeStyle=none;orthogonalLoop=1;jettySize=auto;html=1;rounded=0;exitX=0.5;exitY=1;exitDx=0;exitDy=0;exitPerimeter=0;" edge="1" parent="1" source="ca_i9T38x5-RtTC7sIzJ-9">
          <mxGeometry width="100" relative="1" as="geometry">
            <mxPoint x="110" y="430" as="sourcePoint" />
            <mxPoint x="250" y="530" as="targetPoint" />
            <Array as="points">
              <mxPoint x="120" y="530" />
            </Array>
          </mxGeometry>
        </mxCell>
        <mxCell id="ca_i9T38x5-RtTC7sIzJ-24" value="" style="edgeStyle=none;orthogonalLoop=1;jettySize=auto;html=1;rounded=0;entryX=0.5;entryY=0;entryDx=0;entryDy=0;" edge="1" parent="1" target="ca_i9T38x5-RtTC7sIzJ-16">
          <mxGeometry width="100" relative="1" as="geometry">
            <mxPoint x="300" y="590" as="sourcePoint" />
            <mxPoint x="350" y="590" as="targetPoint" />
            <Array as="points" />
          </mxGeometry>
        </mxCell>
        <mxCell id="ca_i9T38x5-RtTC7sIzJ-25" value="" style="edgeStyle=none;orthogonalLoop=1;jettySize=auto;html=1;rounded=0;entryX=-0.043;entryY=0.54;entryDx=0;entryDy=0;entryPerimeter=0;exitX=1;exitY=0.5;exitDx=0;exitDy=0;" edge="1" parent="1" source="ca_i9T38x5-RtTC7sIzJ-16" target="ca_i9T38x5-RtTC7sIzJ-15">
          <mxGeometry width="100" relative="1" as="geometry">
            <mxPoint x="370" y="710" as="sourcePoint" />
            <mxPoint x="420" y="710" as="targetPoint" />
            <Array as="points" />
          </mxGeometry>
        </mxCell>
        <mxCell id="ca_i9T38x5-RtTC7sIzJ-26" value="" style="edgeStyle=none;orthogonalLoop=1;jettySize=auto;html=1;rounded=0;entryX=0.36;entryY=-0.02;entryDx=0;entryDy=0;entryPerimeter=0;" edge="1" parent="1" target="ca_i9T38x5-RtTC7sIzJ-17">
          <mxGeometry width="100" relative="1" as="geometry">
            <mxPoint x="420" y="710" as="sourcePoint" />
            <mxPoint x="480" y="720" as="targetPoint" />
            <Array as="points" />
          </mxGeometry>
        </mxCell>
        <mxCell id="ca_i9T38x5-RtTC7sIzJ-27" value="" style="edgeStyle=none;orthogonalLoop=1;jettySize=auto;html=1;rounded=0;entryX=1;entryY=0.5;entryDx=0;entryDy=0;exitX=0.65;exitY=1.06;exitDx=0;exitDy=0;exitPerimeter=0;" edge="1" parent="1" source="ca_i9T38x5-RtTC7sIzJ-15" target="ca_i9T38x5-RtTC7sIzJ-17">
          <mxGeometry width="100" relative="1" as="geometry">
            <mxPoint x="550" y="740" as="sourcePoint" />
            <mxPoint x="650" y="740" as="targetPoint" />
            <Array as="points">
              <mxPoint x="608" y="830" />
            </Array>
          </mxGeometry>
        </mxCell>
        <mxCell id="ca_i9T38x5-RtTC7sIzJ-29" value="" style="edgeStyle=elbowEdgeStyle;html=1;endArrow=none;elbow=vertical;rounded=0;exitX=0.5;exitY=1;exitDx=0;exitDy=0;" edge="1" parent="1" source="ca_i9T38x5-RtTC7sIzJ-14">
          <mxGeometry width="160" relative="1" as="geometry">
            <mxPoint x="440" y="680" as="sourcePoint" />
            <mxPoint x="600" y="680" as="targetPoint" />
          </mxGeometry>
        </mxCell>
        <mxCell id="ca_i9T38x5-RtTC7sIzJ-30" value="Predict parameters" style="text;html=1;align=center;verticalAlign=middle;resizable=0;points=[];autosize=1;strokeColor=none;fillColor=none;" vertex="1" parent="1">
          <mxGeometry x="380" y="690" width="120" height="30" as="geometry" />
        </mxCell>
        <mxCell id="ca_i9T38x5-RtTC7sIzJ-31" value="Suggested crop through database&lt;div&gt;&amp;nbsp;and parameters values&lt;/div&gt;" style="text;html=1;align=center;verticalAlign=middle;resizable=0;points=[];autosize=1;strokeColor=none;fillColor=none;rotation=90;" vertex="1" parent="1">
          <mxGeometry x="290" y="800" width="200" height="40" as="geometry" />
        </mxCell>
        <mxCell id="ca_i9T38x5-RtTC7sIzJ-32" value="Crop prediction" style="text;html=1;align=center;verticalAlign=middle;resizable=0;points=[];autosize=1;strokeColor=none;fillColor=none;" vertex="1" parent="1">
          <mxGeometry x="530" y="910" width="100" height="30" as="geometry" />
        </mxCell>
      </root>
    </mxGraphModel>
  </diagram>
  <diagram id="_1NZYBlpGj8mSdMbp1oK" name="Page-2">
    <mxGraphModel dx="880" dy="382" grid="1" gridSize="10" guides="1" tooltips="1" connect="1" arrows="1" fold="1" page="1" pageScale="1" pageWidth="1654" pageHeight="2336" math="0" shadow="0">
      <root>
        <mxCell id="0" />
        <mxCell id="1" parent="0" />
        <mxCell id="5LHdl8clTun3ddaqfMWA-32" value="&lt;b&gt;Use case Diagram&lt;/b&gt;" style="text;html=1;align=center;verticalAlign=middle;resizable=0;points=[];autosize=1;strokeColor=none;fillColor=none;fontSize=20;" vertex="1" parent="1">
          <mxGeometry x="500" y="150" width="200" height="40" as="geometry" />
        </mxCell>
        <mxCell id="5LHdl8clTun3ddaqfMWA-33" value="User" style="shape=umlActor;verticalLabelPosition=bottom;verticalAlign=top;html=1;outlineConnect=0;" vertex="1" parent="1">
          <mxGeometry x="210" y="500" width="70" height="110" as="geometry" />
        </mxCell>
        <mxCell id="5LHdl8clTun3ddaqfMWA-34" value="Upload Image" style="ellipse;whiteSpace=wrap;html=1;" vertex="1" parent="1">
          <mxGeometry x="510" y="310" width="160" height="70" as="geometry" />
        </mxCell>
        <mxCell id="5LHdl8clTun3ddaqfMWA-36" value="Process image" style="ellipse;whiteSpace=wrap;html=1;" vertex="1" parent="1">
          <mxGeometry x="510" y="390" width="170" height="60" as="geometry" />
        </mxCell>
        <mxCell id="5LHdl8clTun3ddaqfMWA-37" value="Show soil type" style="ellipse;whiteSpace=wrap;html=1;" vertex="1" parent="1">
          <mxGeometry x="510" y="450" width="160" height="60" as="geometry" />
        </mxCell>
        <mxCell id="5LHdl8clTun3ddaqfMWA-38" value="Suggest Crops" style="ellipse;whiteSpace=wrap;html=1;" vertex="1" parent="1">
          <mxGeometry x="530" y="680" width="160" height="65" as="geometry" />
        </mxCell>
        <mxCell id="5LHdl8clTun3ddaqfMWA-39" value="Train Model using Dataset" style="ellipse;whiteSpace=wrap;html=1;" vertex="1" parent="1">
          <mxGeometry x="510" y="600" width="180" height="70" as="geometry" />
        </mxCell>
        <mxCell id="5LHdl8clTun3ddaqfMWA-40" value="Suggest crops and Prices" style="ellipse;whiteSpace=wrap;html=1;" vertex="1" parent="1">
          <mxGeometry x="540" y="760" width="140" height="70" as="geometry" />
        </mxCell>
        <mxCell id="5LHdl8clTun3ddaqfMWA-41" value="Enter input features" style="ellipse;whiteSpace=wrap;html=1;" vertex="1" parent="1">
          <mxGeometry x="510" y="530" width="180" height="60" as="geometry" />
        </mxCell>
        <mxCell id="5LHdl8clTun3ddaqfMWA-44" value="Nitrogen(N), Phosphorus(P),&lt;div&gt;Potassium(K)&lt;/div&gt;" style="ellipse;whiteSpace=wrap;html=1;" vertex="1" parent="1">
          <mxGeometry x="830" y="450" width="120" height="80" as="geometry" />
        </mxCell>
        <mxCell id="5LHdl8clTun3ddaqfMWA-45" value="temperature,Humidity,&lt;div&gt;&lt;br&gt;&lt;/div&gt;" style="ellipse;whiteSpace=wrap;html=1;" vertex="1" parent="1">
          <mxGeometry x="827" y="540" width="130" height="60" as="geometry" />
        </mxCell>
        <mxCell id="5LHdl8clTun3ddaqfMWA-46" value="&amp;nbsp;Soil pH level,Rainfall" style="ellipse;whiteSpace=wrap;html=1;" vertex="1" parent="1">
          <mxGeometry x="830" y="607.5" width="120" height="55" as="geometry" />
        </mxCell>
        <mxCell id="5LHdl8clTun3ddaqfMWA-47" value="Teachable Machine" style="shape=umlActor;verticalLabelPosition=bottom;verticalAlign=top;html=1;outlineConnect=0;" vertex="1" parent="1">
          <mxGeometry x="1090" y="302.5" width="60" height="85" as="geometry" />
        </mxCell>
        <mxCell id="5LHdl8clTun3ddaqfMWA-48" value="" style="shape=umlActor;verticalLabelPosition=bottom;verticalAlign=top;html=1;outlineConnect=0;" vertex="1" parent="1">
          <mxGeometry x="1090" y="480" width="70" height="100" as="geometry" />
        </mxCell>
        <mxCell id="5LHdl8clTun3ddaqfMWA-49" value="Data base system" style="shape=umlActor;verticalLabelPosition=bottom;verticalAlign=top;html=1;outlineConnect=0;" vertex="1" parent="1">
          <mxGeometry x="1060" y="680" width="70" height="100" as="geometry" />
        </mxCell>
        <mxCell id="5LHdl8clTun3ddaqfMWA-54" value="" style="endArrow=none;html=1;rounded=0;entryX=0;entryY=0.667;entryDx=0;entryDy=0;entryPerimeter=0;" edge="1" parent="1" target="5LHdl8clTun3ddaqfMWA-36">
          <mxGeometry width="50" height="50" relative="1" as="geometry">
            <mxPoint x="290" y="550" as="sourcePoint" />
            <mxPoint x="610" y="460" as="targetPoint" />
          </mxGeometry>
        </mxCell>
        <mxCell id="5LHdl8clTun3ddaqfMWA-55" value="" style="endArrow=none;html=1;rounded=0;entryX=0;entryY=0.5;entryDx=0;entryDy=0;" edge="1" parent="1" target="5LHdl8clTun3ddaqfMWA-37">
          <mxGeometry width="50" height="50" relative="1" as="geometry">
            <mxPoint x="290" y="550" as="sourcePoint" />
            <mxPoint x="610" y="460" as="targetPoint" />
          </mxGeometry>
        </mxCell>
        <mxCell id="5LHdl8clTun3ddaqfMWA-56" value="" style="endArrow=none;html=1;rounded=0;entryX=0;entryY=0.5;entryDx=0;entryDy=0;" edge="1" parent="1" target="5LHdl8clTun3ddaqfMWA-41">
          <mxGeometry width="50" height="50" relative="1" as="geometry">
            <mxPoint x="290" y="550" as="sourcePoint" />
            <mxPoint x="610" y="530" as="targetPoint" />
          </mxGeometry>
        </mxCell>
        <mxCell id="5LHdl8clTun3ddaqfMWA-57" value="" style="endArrow=none;html=1;rounded=0;entryX=0;entryY=0.5;entryDx=0;entryDy=0;" edge="1" parent="1" target="5LHdl8clTun3ddaqfMWA-39">
          <mxGeometry width="50" height="50" relative="1" as="geometry">
            <mxPoint x="290" y="550" as="sourcePoint" />
            <mxPoint x="500" y="630" as="targetPoint" />
          </mxGeometry>
        </mxCell>
        <mxCell id="5LHdl8clTun3ddaqfMWA-58" value="" style="endArrow=none;html=1;rounded=0;entryX=0;entryY=0.5;entryDx=0;entryDy=0;" edge="1" parent="1" target="5LHdl8clTun3ddaqfMWA-38">
          <mxGeometry width="50" height="50" relative="1" as="geometry">
            <mxPoint x="290" y="550" as="sourcePoint" />
            <mxPoint x="610" y="660" as="targetPoint" />
          </mxGeometry>
        </mxCell>
        <mxCell id="5LHdl8clTun3ddaqfMWA-59" value="" style="endArrow=none;html=1;rounded=0;entryX=-0.021;entryY=0.371;entryDx=0;entryDy=0;entryPerimeter=0;" edge="1" parent="1" target="5LHdl8clTun3ddaqfMWA-40">
          <mxGeometry width="50" height="50" relative="1" as="geometry">
            <mxPoint x="290" y="550" as="sourcePoint" />
            <mxPoint x="530" y="805" as="targetPoint" />
          </mxGeometry>
        </mxCell>
        <mxCell id="5LHdl8clTun3ddaqfMWA-60" value="" style="endArrow=none;html=1;rounded=0;entryX=0;entryY=0.5;entryDx=0;entryDy=0;" edge="1" parent="1" target="5LHdl8clTun3ddaqfMWA-34">
          <mxGeometry width="50" height="50" relative="1" as="geometry">
            <mxPoint x="290" y="550" as="sourcePoint" />
            <mxPoint x="610" y="490" as="targetPoint" />
          </mxGeometry>
        </mxCell>
        <mxCell id="5LHdl8clTun3ddaqfMWA-67" value="" style="endArrow=none;html=1;rounded=0;exitX=1;exitY=0.5;exitDx=0;exitDy=0;entryX=0;entryY=0.3333333333333333;entryDx=0;entryDy=0;entryPerimeter=0;" edge="1" parent="1" source="5LHdl8clTun3ddaqfMWA-36" target="5LHdl8clTun3ddaqfMWA-47">
          <mxGeometry width="50" height="50" relative="1" as="geometry">
            <mxPoint x="860" y="500" as="sourcePoint" />
            <mxPoint x="910" y="450" as="targetPoint" />
          </mxGeometry>
        </mxCell>
        <mxCell id="5LHdl8clTun3ddaqfMWA-68" value="" style="endArrow=none;html=1;rounded=0;exitX=1;exitY=0.5;exitDx=0;exitDy=0;" edge="1" parent="1" source="5LHdl8clTun3ddaqfMWA-37">
          <mxGeometry width="50" height="50" relative="1" as="geometry">
            <mxPoint x="860" y="500" as="sourcePoint" />
            <mxPoint x="1090" y="330" as="targetPoint" />
          </mxGeometry>
        </mxCell>
        <mxCell id="5LHdl8clTun3ddaqfMWA-69" value="" style="endArrow=none;html=1;rounded=0;exitX=0.894;exitY=0.917;exitDx=0;exitDy=0;exitPerimeter=0;" edge="1" parent="1" source="5LHdl8clTun3ddaqfMWA-41">
          <mxGeometry width="50" height="50" relative="1" as="geometry">
            <mxPoint x="950" y="720" as="sourcePoint" />
            <mxPoint x="1070" y="740" as="targetPoint" />
          </mxGeometry>
        </mxCell>
        <mxCell id="5LHdl8clTun3ddaqfMWA-70" value="" style="endArrow=none;html=1;rounded=0;" edge="1" parent="1">
          <mxGeometry width="50" height="50" relative="1" as="geometry">
            <mxPoint x="690" y="800" as="sourcePoint" />
            <mxPoint x="1070" y="740" as="targetPoint" />
          </mxGeometry>
        </mxCell>
        <mxCell id="5LHdl8clTun3ddaqfMWA-71" value="" style="endArrow=none;html=1;rounded=0;exitX=1;exitY=0.5;exitDx=0;exitDy=0;" edge="1" parent="1" source="5LHdl8clTun3ddaqfMWA-39" target="5LHdl8clTun3ddaqfMWA-48">
          <mxGeometry width="50" height="50" relative="1" as="geometry">
            <mxPoint x="950" y="670" as="sourcePoint" />
            <mxPoint x="1000" y="620" as="targetPoint" />
            <Array as="points">
              <mxPoint x="840" y="700" />
              <mxPoint x="990" y="640" />
            </Array>
          </mxGeometry>
        </mxCell>
        <mxCell id="5LHdl8clTun3ddaqfMWA-72" value="" style="endArrow=none;html=1;rounded=0;exitX=1;exitY=0.5;exitDx=0;exitDy=0;" edge="1" parent="1" source="5LHdl8clTun3ddaqfMWA-38">
          <mxGeometry width="50" height="50" relative="1" as="geometry">
            <mxPoint x="800" y="745" as="sourcePoint" />
            <mxPoint x="1090" y="560" as="targetPoint" />
            <Array as="points">
              <mxPoint x="840" y="730" />
              <mxPoint x="1000" y="660" />
            </Array>
          </mxGeometry>
        </mxCell>
        <mxCell id="5LHdl8clTun3ddaqfMWA-73" value="&amp;lt;&amp;lt;include&amp;gt;&amp;gt;" style="html=1;verticalAlign=bottom;labelBackgroundColor=none;endArrow=open;endFill=0;dashed=1;rounded=0;entryX=-0.025;entryY=0.425;entryDx=0;entryDy=0;entryPerimeter=0;exitX=1;exitY=0.333;exitDx=0;exitDy=0;exitPerimeter=0;" edge="1" parent="1" source="5LHdl8clTun3ddaqfMWA-41" target="5LHdl8clTun3ddaqfMWA-44">
          <mxGeometry width="160" relative="1" as="geometry">
            <mxPoint x="610" y="500" as="sourcePoint" />
            <mxPoint x="770" y="500" as="targetPoint" />
          </mxGeometry>
        </mxCell>
        <mxCell id="5LHdl8clTun3ddaqfMWA-74" value="&amp;lt;&amp;lt;include&amp;gt;&amp;gt;" style="html=1;verticalAlign=bottom;labelBackgroundColor=none;endArrow=open;endFill=0;dashed=1;rounded=0;entryX=0;entryY=0.5;entryDx=0;entryDy=0;" edge="1" parent="1" target="5LHdl8clTun3ddaqfMWA-45">
          <mxGeometry width="160" relative="1" as="geometry">
            <mxPoint x="690" y="554.5" as="sourcePoint" />
            <mxPoint x="850" y="554.5" as="targetPoint" />
          </mxGeometry>
        </mxCell>
        <mxCell id="5LHdl8clTun3ddaqfMWA-75" value="&amp;lt;&amp;lt;include&amp;gt;&amp;gt;" style="html=1;verticalAlign=bottom;labelBackgroundColor=none;endArrow=open;endFill=0;dashed=1;rounded=0;entryX=-0.008;entryY=0.264;entryDx=0;entryDy=0;entryPerimeter=0;" edge="1" parent="1" target="5LHdl8clTun3ddaqfMWA-46">
          <mxGeometry width="160" relative="1" as="geometry">
            <mxPoint x="690" y="559.5" as="sourcePoint" />
            <mxPoint x="850" y="559.5" as="targetPoint" />
          </mxGeometry>
        </mxCell>
        <mxCell id="5LHdl8clTun3ddaqfMWA-78" value="ML Model" style="text;html=1;align=center;verticalAlign=middle;resizable=0;points=[];autosize=1;strokeColor=none;fillColor=none;" vertex="1" parent="1">
          <mxGeometry x="1080" y="578" width="80" height="30" as="geometry" />
        </mxCell>
        <mxCell id="5LHdl8clTun3ddaqfMWA-82" value="" style="endArrow=none;html=1;rounded=0;" edge="1" parent="1">
          <mxGeometry width="50" height="50" relative="1" as="geometry">
            <mxPoint x="360" y="840" as="sourcePoint" />
            <mxPoint x="360" y="280" as="targetPoint" />
          </mxGeometry>
        </mxCell>
        <mxCell id="5LHdl8clTun3ddaqfMWA-83" value="" style="endArrow=none;html=1;rounded=0;" edge="1" parent="1">
          <mxGeometry width="50" height="50" relative="1" as="geometry">
            <mxPoint x="360" y="280" as="sourcePoint" />
            <mxPoint x="960" y="280" as="targetPoint" />
          </mxGeometry>
        </mxCell>
        <mxCell id="5LHdl8clTun3ddaqfMWA-84" value="" style="endArrow=none;html=1;rounded=0;" edge="1" parent="1">
          <mxGeometry width="50" height="50" relative="1" as="geometry">
            <mxPoint x="960" y="840" as="sourcePoint" />
            <mxPoint x="960" y="280" as="targetPoint" />
          </mxGeometry>
        </mxCell>
        <mxCell id="5LHdl8clTun3ddaqfMWA-85" value="" style="endArrow=none;html=1;rounded=0;" edge="1" parent="1">
          <mxGeometry width="50" height="50" relative="1" as="geometry">
            <mxPoint x="360" y="840" as="sourcePoint" />
            <mxPoint x="960" y="840" as="targetPoint" />
          </mxGeometry>
        </mxCell>
        <mxCell id="5LHdl8clTun3ddaqfMWA-86" value="Using features" style="text;html=1;align=center;verticalAlign=middle;resizable=0;points=[];autosize=1;strokeColor=none;fillColor=none;" vertex="1" parent="1">
          <mxGeometry x="790" y="730" width="100" height="30" as="geometry" />
        </mxCell>
        <mxCell id="5LHdl8clTun3ddaqfMWA-87" value="&lt;b&gt;Crop recommendation system&lt;/b&gt;" style="text;html=1;align=center;verticalAlign=middle;resizable=0;points=[];autosize=1;strokeColor=none;fillColor=none;" vertex="1" parent="1">
          <mxGeometry x="540" y="272.5" width="200" height="30" as="geometry" />
        </mxCell>
      </root>
    </mxGraphModel>
  </diagram>
  <diagram id="bxHxO5S1AqMGMdGWvx0_" name="Page-3">
    <mxGraphModel dx="880" dy="382" grid="1" gridSize="10" guides="1" tooltips="1" connect="1" arrows="1" fold="1" page="1" pageScale="1" pageWidth="1654" pageHeight="2336" math="0" shadow="0">
      <root>
        <mxCell id="0" />
        <mxCell id="1" parent="0" />
        <UserObject label="" plantUmlData="{&#xa;  &quot;data&quot;: &quot;@startuml\n\n&#39; Define external entities\nactor User as User\ndatabase \&quot;Crop Dataset\&quot; as CropDataset\n\n&#39; Define the main system/process\nrectangle \&quot;Crop Recommendation System\&quot; {\n    &#39; Define processes\n    rectangle \&quot;Process Input Parameters\&quot; as ProcessInput {\n        User --&gt; ProcessInput : Input Parameters\n    }\n    \n    rectangle \&quot;Process Crop Selection\&quot; as ProcessSelection {\n        ProcessInput --&gt; ProcessSelection : Processed Parameters\n        ProcessSelection --&gt; User : Recommended Crops\n    }\n    \n    &#39; Define data store\n    CropDataset --&gt; ProcessSelection : Crop Data\n}\n\n@enduml\n&quot;,&#xa;  &quot;format&quot;: &quot;svg&quot;&#xa;}" id="hGQBugC41bDjrsDswyLP-6">
          <mxCell style="shape=image;noLabel=1;verticalAlign=top;aspect=fixed;imageAspect=0;image=data:image/svg+xml,PD94bWwgdmVyc2lvbj0iMS4wIiBlbmNvZGluZz0idXMtYXNjaWkiIHN0YW5kYWxvbmU9Im5vIj8+PHN2ZyB4bWxucz0iaHR0cDovL3d3dy53My5vcmcvMjAwMC9zdmciIHhtbG5zOnhsaW5rPSJodHRwOi8vd3d3LnczLm9yZy8xOTk5L3hsaW5rIiBjb250ZW50U3R5bGVUeXBlPSJ0ZXh0L2NzcyIgaGVpZ2h0PSIzNDhweCIgcHJlc2VydmVBc3BlY3RSYXRpbz0ibm9uZSIgc3R5bGU9IndpZHRoOjQ4NHB4O2hlaWdodDozNDhweDtiYWNrZ3JvdW5kOiNGRkZGRkY7IiB2ZXJzaW9uPSIxLjEiIHZpZXdCb3g9IjAgMCA0ODQgMzQ4IiB3aWR0aD0iNDg0cHgiIHpvb21BbmRQYW49Im1hZ25pZnkiPjxkZWZzLz48Zz48IS0tY2x1c3RlciBDcm9wIFJlY29tbWVuZGF0aW9uIFN5c3RlbS0tPjxnIGlkPSJjbHVzdGVyX0Nyb3AgUmVjb21tZW5kYXRpb24gU3lzdGVtIj48cmVjdCBmaWxsPSJub25lIiBoZWlnaHQ9IjE5OC41IiByeD0iMi41IiByeT0iMi41IiBzdHlsZT0ic3Ryb2tlOiMxODE4MTg7c3Ryb2tlLXdpZHRoOjEuMDsiIHdpZHRoPSIyMjIiIHg9IjEyMi4zOSIgeT0iNyIvPjx0ZXh0IGZpbGw9IiMwMDAwMDAiIGZvbnQtZmFtaWx5PSJzYW5zLXNlcmlmIiBmb250LXNpemU9IjE0IiBmb250LXdlaWdodD0iYm9sZCIgbGVuZ3RoQWRqdXN0PSJzcGFjaW5nIiB0ZXh0TGVuZ3RoPSIxODUiIHg9IjE0MC44OSIgeT0iMjIuMjM0NCI+Q3JvcCBSZWNvbW1lbmRhdGlvbiBTeXN0ZW08L3RleHQ+PC9nPjwhLS1lbnRpdHkgUHJvY2Vzc0lucHV0LS0+PGcgaWQ9ImVsZW1fUHJvY2Vzc0lucHV0Ij48cmVjdCBmaWxsPSIjRjFGMUYxIiBoZWlnaHQ9IjM0Ljk4NDQiIHJ4PSIyLjUiIHJ5PSIyLjUiIHN0eWxlPSJzdHJva2U6IzE4MTgxODtzdHJva2Utd2lkdGg6MC41OyIgd2lkdGg9IjE4OSIgeD0iMTM4Ljg5IiB5PSI0MCIvPjx0ZXh0IGZpbGw9IiMwMDAwMDAiIGZvbnQtZmFtaWx5PSJzYW5zLXNlcmlmIiBmb250LXNpemU9IjE0IiBsZW5ndGhBZGp1c3Q9InNwYWNpbmciIHRleHRMZW5ndGg9IjE2OSIgeD0iMTQ4Ljg5IiB5PSI2My4yMzQ0Ij5Qcm9jZXNzIElucHV0IFBhcmFtZXRlcnM8L3RleHQ+PC9nPjwhLS1lbnRpdHkgUHJvY2Vzc1NlbGVjdGlvbi0tPjxnIGlkPSJlbGVtX1Byb2Nlc3NTZWxlY3Rpb24iPjxyZWN0IGZpbGw9IiNGMUYxRjEiIGhlaWdodD0iMzQuOTg0NCIgcng9IjIuNSIgcnk9IjIuNSIgc3R5bGU9InN0cm9rZTojMTgxODE4O3N0cm9rZS13aWR0aDowLjU7IiB3aWR0aD0iMTc0IiB4PSIxNTQuMzkiIHk9IjE1NC41Ii8+PHRleHQgZmlsbD0iIzAwMDAwMCIgZm9udC1mYW1pbHk9InNhbnMtc2VyaWYiIGZvbnQtc2l6ZT0iMTQiIGxlbmd0aEFkanVzdD0ic3BhY2luZyIgdGV4dExlbmd0aD0iMTU0IiB4PSIxNjQuMzkiIHk9IjE3Ny43MzQ0Ij5Qcm9jZXNzIENyb3AgU2VsZWN0aW9uPC90ZXh0PjwvZz48IS0tZW50aXR5IFVzZXItLT48ZyBpZD0iZWxlbV9Vc2VyIj48ZWxsaXBzZSBjeD0iMzguMzkiIGN5PSIyNzUiIGZpbGw9IiNGMUYxRjEiIHJ4PSI4IiByeT0iOCIgc3R5bGU9InN0cm9rZTojMTgxODE4O3N0cm9rZS13aWR0aDowLjU7Ii8+PHBhdGggZD0iTTM4LjM5LDI4MyBMMzguMzksMzEwIE0yNS4zOSwyOTEgTDUxLjM5LDI5MSBNMzguMzksMzEwIEwyNS4zOSwzMjUgTTM4LjM5LDMxMCBMNTEuMzksMzI1ICIgZmlsbD0ibm9uZSIgc3R5bGU9InN0cm9rZTojMTgxODE4O3N0cm9rZS13aWR0aDowLjU7Ii8+PHRleHQgZmlsbD0iIzAwMDAwMCIgZm9udC1mYW1pbHk9InNhbnMtc2VyaWYiIGZvbnQtc2l6ZT0iMTQiIGxlbmd0aEFkanVzdD0ic3BhY2luZyIgdGV4dExlbmd0aD0iMjgiIHg9IjI0LjM5IiB5PSIzMzkuNzM0NCI+VXNlcjwvdGV4dD48L2c+PCEtLWVudGl0eSBDcm9wRGF0YXNldC0tPjxnIGlkPSJlbGVtX0Nyb3BEYXRhc2V0Ij48cGF0aCBkPSJNMzYzLjM5LDQ1LjUgQzM2My4zOSwzNS41IDQxNS4zOSwzNS41IDQxNS4zOSwzNS41IEM0MTUuMzksMzUuNSA0NjcuMzksMzUuNSA0NjcuMzksNDUuNSBMNDY3LjM5LDY5LjQ4NDQgQzQ2Ny4zOSw3OS40ODQ0IDQxNS4zOSw3OS40ODQ0IDQxNS4zOSw3OS40ODQ0IEM0MTUuMzksNzkuNDg0NCAzNjMuMzksNzkuNDg0NCAzNjMuMzksNjkuNDg0NCBMMzYzLjM5LDQ1LjUgIiBmaWxsPSIjRjFGMUYxIiBzdHlsZT0ic3Ryb2tlOiMxODE4MTg7c3Ryb2tlLXdpZHRoOjAuNTsiLz48cGF0aCBkPSJNMzYzLjM5LDQ1LjUgQzM2My4zOSw1NS41IDQxNS4zOSw1NS41IDQxNS4zOSw1NS41IEM0MTUuMzksNTUuNSA0NjcuMzksNTUuNSA0NjcuMzksNDUuNSAiIGZpbGw9Im5vbmUiIHN0eWxlPSJzdHJva2U6IzE4MTgxODtzdHJva2Utd2lkdGg6MC41OyIvPjx0ZXh0IGZpbGw9IiMwMDAwMDAiIGZvbnQtZmFtaWx5PSJzYW5zLXNlcmlmIiBmb250LXNpemU9IjE0IiBsZW5ndGhBZGp1c3Q9InNwYWNpbmciIHRleHRMZW5ndGg9Ijg0IiB4PSIzNzMuMzkiIHk9IjcyLjczNDQiPkNyb3AgRGF0YXNldDwvdGV4dD48L2c+PCEtLWxpbmsgVXNlciB0byBQcm9jZXNzSW5wdXQtLT48ZyBpZD0ibGlua19Vc2VyX1Byb2Nlc3NJbnB1dCI+PHBhdGggZD0iTTI0LjM2LDI2Ny4wNSBDMTQuMzMsMjM0Ljk5IDYsMTg4LjA3IDI3LjM5LDE1NC41IEM1NC4yMiwxMTIuNDEgOTkuMDg3OSw5MC4yMTAxIDE0My40Mzc5LDc2Ljc3MDEgIiBmaWxsPSJub25lIiBpZD0iVXNlci10by1Qcm9jZXNzSW5wdXQiIHN0eWxlPSJzdHJva2U6IzE4MTgxODtzdHJva2Utd2lkdGg6MS4wOyIvPjxwb2x5Z29uIGZpbGw9IiMxODE4MTgiIHBvaW50cz0iMTQ5LjE4LDc1LjAzLDEzOS40MDY3LDczLjgxMjEsMTQ0LjM5NDksNzYuNDgwMSwxNDEuNzI2OSw4MS40NjgzLDE0OS4xOCw3NS4wMyIgc3R5bGU9InN0cm9rZTojMTgxODE4O3N0cm9rZS13aWR0aDoxLjA7Ii8+PHRleHQgZmlsbD0iIzAwMDAwMCIgZm9udC1mYW1pbHk9InNhbnMtc2VyaWYiIGZvbnQtc2l6ZT0iMTMiIGxlbmd0aEFkanVzdD0ic3BhY2luZyIgdGV4dExlbmd0aD0iMTA4IiB4PSIyOC4zOSIgeT0iMTc3Ljc4OTEiPklucHV0IFBhcmFtZXRlcnM8L3RleHQ+PC9nPjwhLS1saW5rIFByb2Nlc3NJbnB1dCB0byBQcm9jZXNzU2VsZWN0aW9uLS0+PGcgaWQ9ImxpbmtfUHJvY2Vzc0lucHV0X1Byb2Nlc3NTZWxlY3Rpb24iPjxwYXRoIGQ9Ik0yMzIuMTMsNzUuMDkgQzIzMS4zNSw4OC40NiAyMzAuNzksMTA3LjczIDIzMi4zOSwxMjQuNSBDMjMzLjM1LDEzNC40OSAyMzQuMTYyNCwxMzkuNjQ3NiAyMzYuMDgyNCwxNDguNDU3NiAiIGZpbGw9Im5vbmUiIGlkPSJQcm9jZXNzSW5wdXQtdG8tUHJvY2Vzc1NlbGVjdGlvbiIgc3R5bGU9InN0cm9rZTojMTgxODE4O3N0cm9rZS13aWR0aDoxLjA7Ii8+PHBvbHlnb24gZmlsbD0iIzE4MTgxOCIgcG9pbnRzPSIyMzcuMzYsMTU0LjMyLDIzOS4zNTE4LDE0NC42NzQ3LDIzNi4yOTUzLDE0OS40MzQ3LDIzMS41MzUzLDE0Ni4zNzgxLDIzNy4zNiwxNTQuMzIiIHN0eWxlPSJzdHJva2U6IzE4MTgxODtzdHJva2Utd2lkdGg6MS4wOyIvPjx0ZXh0IGZpbGw9IiMwMDAwMDAiIGZvbnQtZmFtaWx5PSJzYW5zLXNlcmlmIiBmb250LXNpemU9IjEzIiBsZW5ndGhBZGp1c3Q9InNwYWNpbmciIHRleHRMZW5ndGg9IjEzOCIgeD0iMjMzLjM5IiB5PSIxMjIuNzg5MSI+UHJvY2Vzc2VkIFBhcmFtZXRlcnM8L3RleHQ+PC9nPjwhLS1saW5rIFByb2Nlc3NTZWxlY3Rpb24gdG8gVXNlci0tPjxnIGlkPSJsaW5rX1Byb2Nlc3NTZWxlY3Rpb25fVXNlciI+PHBhdGggZD0iTTIxNS4yNywxODkuNzMgQzE3MS43OSwyMTcuNTcgOTEuMTAyMiwyNjkuMjQzNSA1Ny40NjIyLDI5MC43OTM1ICIgZmlsbD0ibm9uZSIgaWQ9IlByb2Nlc3NTZWxlY3Rpb24tdG8tVXNlciIgc3R5bGU9InN0cm9rZTojMTgxODE4O3N0cm9rZS13aWR0aDoxLjA7Ii8+PHBvbHlnb24gZmlsbD0iIzE4MTgxOCIgcG9pbnRzPSI1Mi40MSwyOTQuMDMsNjIuMTQ2LDI5Mi41NDM0LDU2LjYyMDIsMjkxLjMzMjksNTcuODMwNywyODUuODA3MSw1Mi40MSwyOTQuMDMiIHN0eWxlPSJzdHJva2U6IzE4MTgxODtzdHJva2Utd2lkdGg6MS4wOyIvPjx0ZXh0IGZpbGw9IiMwMDAwMDAiIGZvbnQtZmFtaWx5PSJzYW5zLXNlcmlmIiBmb250LXNpemU9IjEzIiBsZW5ndGhBZGp1c3Q9InNwYWNpbmciIHRleHRMZW5ndGg9IjExNyIgeD0iMTY0LjM5IiB5PSIyMzQuNzg5MSI+UmVjb21tZW5kZWQgQ3JvcHM8L3RleHQ+PC9nPjwhLS1saW5rIENyb3BEYXRhc2V0IHRvIFByb2Nlc3NTZWxlY3Rpb24tLT48ZyBpZD0ibGlua19Dcm9wRGF0YXNldF9Qcm9jZXNzU2VsZWN0aW9uIj48cGF0aCBkPSJNNDA3LjUyLDc5LjYyIEM0MDEuMTQsOTQuMDkgMzkwLjgzLDExMi43MiAzNzYuMzksMTI0LjUgQzM1OS45NywxMzcuOSAzNDUuMTM0LDE0NS41ODkyIDMyNS4wOTQsMTUyLjQ3OTIgIiBmaWxsPSJub25lIiBpZD0iQ3JvcERhdGFzZXQtdG8tUHJvY2Vzc1NlbGVjdGlvbiIgc3R5bGU9InN0cm9rZTojMTgxODE4O3N0cm9rZS13aWR0aDoxLjA7Ii8+PHBvbHlnb24gZmlsbD0iIzE4MTgxOCIgcG9pbnRzPSIzMTkuNDIsMTU0LjQzLDMyOS4yMzE1LDE1NS4yODY1LDMyNC4xNDgzLDE1Mi44MDQzLDMyNi42MzA1LDE0Ny43MjExLDMxOS40MiwxNTQuNDMiIHN0eWxlPSJzdHJva2U6IzE4MTgxODtzdHJva2Utd2lkdGg6MS4wOyIvPjx0ZXh0IGZpbGw9IiMwMDAwMDAiIGZvbnQtZmFtaWx5PSJzYW5zLXNlcmlmIiBmb250LXNpemU9IjEzIiBsZW5ndGhBZGp1c3Q9InNwYWNpbmciIHRleHRMZW5ndGg9IjYyIiB4PSIzODkuMzkiIHk9IjEyMi43ODkxIj5Dcm9wIERhdGE8L3RleHQ+PC9nPjwhLS1TUkM9W1RMNnhSaUNtM0RwcjVPSU5KNDV0M3JzUTlMa0dlMV8wRWpUNlcyS1A4V2txQUZCbGJVSU5hWTBRUkVZRWwza0E2emhYcXRlR1ZYSkhTcV9tUWpMMjM3U1E4aHFCOGg2S2xwY3B5V1NCZzdjQk9RMVRrV2dxb05tNmZoaW5jcmJMQm8zN3JmRnlZaUF6MzM1cTQzNEhkUkJfd2NVYjh4aFc3N21vaUM3SmdMR3R6NlNlZEtMandheFBDYm5mNzRRMnpkeHVMWmZtUDhTcVpmSGE0cGJvZXM4LVBSM2p6bE1NUm55cUlpRXJWOV9QYlg1RXcxRUpxalVjMnJXUHRfWEwwVFJRVGVQbWxXekkyUXByTVFJQ3F3dUZjTGZwaDhWdW9zRmNOUEFhNVFGV3JWd1VYTGZzUmd4X10tLT48L2c+PC9zdmc+;" vertex="1" parent="1">
            <mxGeometry x="210" y="200" width="484" height="348" as="geometry" />
          </mxCell>
        </UserObject>
        <mxCell id="hGQBugC41bDjrsDswyLP-7" value="&lt;b&gt;Level 0 Data Flow Diagram:&lt;/b&gt;" style="text;html=1;align=center;verticalAlign=middle;resizable=0;points=[];autosize=1;strokeColor=none;fillColor=none;" vertex="1" parent="1">
          <mxGeometry x="70" y="150" width="180" height="30" as="geometry" />
        </mxCell>
      </root>
    </mxGraphModel>
  </diagram>
  <diagram id="rW89yvOjXrlduKZ0XNMh" name="Page-4">
    <mxGraphModel dx="880" dy="2718" grid="1" gridSize="10" guides="1" tooltips="1" connect="1" arrows="1" fold="1" page="1" pageScale="1" pageWidth="1654" pageHeight="2336" math="0" shadow="0">
      <root>
        <mxCell id="0" />
        <mxCell id="1" parent="0" />
        <UserObject label="" plantUmlData="{&quot;data&quot;:&quot;@startuml\n\n&#39; Define external entities\nactor User as User\ndatabase \&quot;Crop Dataset\&quot; as CropDataset\n\n&#39; Define processes\nrectangle \&quot;Crop Recommendation System\&quot; {\n    rectangle \&quot;Input Processing\&quot; as InputProcess {\n        User --&gt; InputProcess :P,K,N, Temperature,Humidity,Rainfall\n    }\n    \n    rectangle \&quot;Crop Selection\&quot; as CropSelection {\n        InputProcess --&gt; CropSelection : Processed Parameters\n        CropDataset --&gt; CropSelection : Crop Data\n        CropSelection --&gt; User : Recommended Crops\n    }\n}\n\n@enduml\n&quot;,&quot;format&quot;:&quot;svg&quot;}" id="Ghlr8xUHRVX8Z82gw6-y-2">
          <mxCell style="shape=image;noLabel=1;verticalAlign=top;aspect=fixed;imageAspect=0;image=data:image/svg+xml,PD94bWwgdmVyc2lvbj0iMS4wIiBlbmNvZGluZz0idXMtYXNjaWkiIHN0YW5kYWxvbmU9Im5vIj8+PHN2ZyB4bWxucz0iaHR0cDovL3d3dy53My5vcmcvMjAwMC9zdmciIHhtbG5zOnhsaW5rPSJodHRwOi8vd3d3LnczLm9yZy8xOTk5L3hsaW5rIiBjb250ZW50U3R5bGVUeXBlPSJ0ZXh0L2NzcyIgaGVpZ2h0PSIzNDhweCIgcHJlc2VydmVBc3BlY3RSYXRpbz0ibm9uZSIgc3R5bGU9IndpZHRoOjU1NXB4O2hlaWdodDozNDhweDtiYWNrZ3JvdW5kOiNGRkZGRkY7IiB2ZXJzaW9uPSIxLjEiIHZpZXdCb3g9IjAgMCA1NTUgMzQ4IiB3aWR0aD0iNTU1cHgiIHpvb21BbmRQYW49Im1hZ25pZnkiPjxkZWZzLz48Zz48IS0tY2x1c3RlciBDcm9wIFJlY29tbWVuZGF0aW9uIFN5c3RlbS0tPjxnIGlkPSJjbHVzdGVyX0Nyb3AgUmVjb21tZW5kYXRpb24gU3lzdGVtIj48cmVjdCBmaWxsPSJub25lIiBoZWlnaHQ9IjE5OC41IiByeD0iMi41IiByeT0iMi41IiBzdHlsZT0ic3Ryb2tlOiMxODE4MTg7c3Ryb2tlLXdpZHRoOjEuMDsiIHdpZHRoPSIyMDciIHg9IjIxMS4zNiIgeT0iNyIvPjx0ZXh0IGZpbGw9IiMwMDAwMDAiIGZvbnQtZmFtaWx5PSJzYW5zLXNlcmlmIiBmb250LXNpemU9IjE0IiBmb250LXdlaWdodD0iYm9sZCIgbGVuZ3RoQWRqdXN0PSJzcGFjaW5nIiB0ZXh0TGVuZ3RoPSIxODUiIHg9IjIyMi4zNiIgeT0iMjIuMjM0NCI+Q3JvcCBSZWNvbW1lbmRhdGlvbiBTeXN0ZW08L3RleHQ+PC9nPjwhLS1lbnRpdHkgSW5wdXRQcm9jZXNzLS0+PGcgaWQ9ImVsZW1fSW5wdXRQcm9jZXNzIj48cmVjdCBmaWxsPSIjRjFGMUYxIiBoZWlnaHQ9IjM0Ljk4NDQiIHJ4PSIyLjUiIHJ5PSIyLjUiIHN0eWxlPSJzdHJva2U6IzE4MTgxODtzdHJva2Utd2lkdGg6MC41OyIgd2lkdGg9IjEzMiIgeD0iMjI3LjM2IiB5PSI0MCIvPjx0ZXh0IGZpbGw9IiMwMDAwMDAiIGZvbnQtZmFtaWx5PSJzYW5zLXNlcmlmIiBmb250LXNpemU9IjE0IiBsZW5ndGhBZGp1c3Q9InNwYWNpbmciIHRleHRMZW5ndGg9IjExMiIgeD0iMjM3LjM2IiB5PSI2My4yMzQ0Ij5JbnB1dCBQcm9jZXNzaW5nPC90ZXh0PjwvZz48IS0tZW50aXR5IENyb3BTZWxlY3Rpb24tLT48ZyBpZD0iZWxlbV9Dcm9wU2VsZWN0aW9uIj48cmVjdCBmaWxsPSIjRjFGMUYxIiBoZWlnaHQ9IjM0Ljk4NDQiIHJ4PSIyLjUiIHJ5PSIyLjUiIHN0eWxlPSJzdHJva2U6IzE4MTgxODtzdHJva2Utd2lkdGg6MC41OyIgd2lkdGg9IjExOCIgeD0iMjg0LjM2IiB5PSIxNTQuNSIvPjx0ZXh0IGZpbGw9IiMwMDAwMDAiIGZvbnQtZmFtaWx5PSJzYW5zLXNlcmlmIiBmb250LXNpemU9IjE0IiBsZW5ndGhBZGp1c3Q9InNwYWNpbmciIHRleHRMZW5ndGg9Ijk4IiB4PSIyOTQuMzYiIHk9IjE3Ny43MzQ0Ij5Dcm9wIFNlbGVjdGlvbjwvdGV4dD48L2c+PCEtLWVudGl0eSBVc2VyLS0+PGcgaWQ9ImVsZW1fVXNlciI+PGVsbGlwc2UgY3g9IjQwLjM2IiBjeT0iMjc1IiBmaWxsPSIjRjFGMUYxIiByeD0iOCIgcnk9IjgiIHN0eWxlPSJzdHJva2U6IzE4MTgxODtzdHJva2Utd2lkdGg6MC41OyIvPjxwYXRoIGQ9Ik00MC4zNiwyODMgTDQwLjM2LDMxMCBNMjcuMzYsMjkxIEw1My4zNiwyOTEgTTQwLjM2LDMxMCBMMjcuMzYsMzI1IE00MC4zNiwzMTAgTDUzLjM2LDMyNSAiIGZpbGw9Im5vbmUiIHN0eWxlPSJzdHJva2U6IzE4MTgxODtzdHJva2Utd2lkdGg6MC41OyIvPjx0ZXh0IGZpbGw9IiMwMDAwMDAiIGZvbnQtZmFtaWx5PSJzYW5zLXNlcmlmIiBmb250LXNpemU9IjE0IiBsZW5ndGhBZGp1c3Q9InNwYWNpbmciIHRleHRMZW5ndGg9IjI4IiB4PSIyNi4zNiIgeT0iMzM5LjczNDQiPlVzZXI8L3RleHQ+PC9nPjwhLS1lbnRpdHkgQ3JvcERhdGFzZXQtLT48ZyBpZD0iZWxlbV9Dcm9wRGF0YXNldCI+PHBhdGggZD0iTTQzNC4zNiw0NS41IEM0MzQuMzYsMzUuNSA0ODYuMzYsMzUuNSA0ODYuMzYsMzUuNSBDNDg2LjM2LDM1LjUgNTM4LjM2LDM1LjUgNTM4LjM2LDQ1LjUgTDUzOC4zNiw2OS40ODQ0IEM1MzguMzYsNzkuNDg0NCA0ODYuMzYsNzkuNDg0NCA0ODYuMzYsNzkuNDg0NCBDNDg2LjM2LDc5LjQ4NDQgNDM0LjM2LDc5LjQ4NDQgNDM0LjM2LDY5LjQ4NDQgTDQzNC4zNiw0NS41ICIgZmlsbD0iI0YxRjFGMSIgc3R5bGU9InN0cm9rZTojMTgxODE4O3N0cm9rZS13aWR0aDowLjU7Ii8+PHBhdGggZD0iTTQzNC4zNiw0NS41IEM0MzQuMzYsNTUuNSA0ODYuMzYsNTUuNSA0ODYuMzYsNTUuNSBDNDg2LjM2LDU1LjUgNTM4LjM2LDU1LjUgNTM4LjM2LDQ1LjUgIiBmaWxsPSJub25lIiBzdHlsZT0ic3Ryb2tlOiMxODE4MTg7c3Ryb2tlLXdpZHRoOjAuNTsiLz48dGV4dCBmaWxsPSIjMDAwMDAwIiBmb250LWZhbWlseT0ic2Fucy1zZXJpZiIgZm9udC1zaXplPSIxNCIgbGVuZ3RoQWRqdXN0PSJzcGFjaW5nIiB0ZXh0TGVuZ3RoPSI4NCIgeD0iNDQ0LjM2IiB5PSI3Mi43MzQ0Ij5Dcm9wIERhdGFzZXQ8L3RleHQ+PC9nPjwhLS1saW5rIFVzZXIgdG8gSW5wdXRQcm9jZXNzLS0+PGcgaWQ9ImxpbmtfVXNlcl9JbnB1dFByb2Nlc3MiPjxwYXRoIGQ9Ik0yNi4zNiwyNjguNzggQzE1LjU1LDIzNi4zNyA2LDE4Ny44NSAyOS4zNiwxNTQuNSBDNzMuNzgsOTEuMDkgMTU4LjY3MDYsNzAuMDk2NyAyMjEuMjgwNiw2Mi43NzY3ICIgZmlsbD0ibm9uZSIgaWQ9IlVzZXItdG8tSW5wdXRQcm9jZXNzIiBzdHlsZT0ic3Ryb2tlOiMxODE4MTg7c3Ryb2tlLXdpZHRoOjEuMDsiLz48cG9seWdvbiBmaWxsPSIjMTgxODE4IiBwb2ludHM9IjIyNy4yNCw2Mi4wOCwyMTcuODM2NCw1OS4xNTIyLDIyMi4yNzM4LDYyLjY2MDYsMjE4Ljc2NTQsNjcuMDk4LDIyNy4yNCw2Mi4wOCIgc3R5bGU9InN0cm9rZTojMTgxODE4O3N0cm9rZS13aWR0aDoxLjA7Ii8+PHRleHQgZmlsbD0iIzAwMDAwMCIgZm9udC1mYW1pbHk9InNhbnMtc2VyaWYiIGZvbnQtc2l6ZT0iMTMiIGxlbmd0aEFkanVzdD0ic3BhY2luZyIgdGV4dExlbmd0aD0iMjM2IiB4PSIzMC4zNiIgeT0iMTc3Ljc4OTEiPlAsSyxOLCBUZW1wZXJhdHVyZSxIdW1pZGl0eSxSYWluZmFsbDwvdGV4dD48L2c+PCEtLWxpbmsgSW5wdXRQcm9jZXNzIHRvIENyb3BTZWxlY3Rpb24tLT48ZyBpZD0ibGlua19JbnB1dFByb2Nlc3NfQ3JvcFNlbGVjdGlvbiI+PHBhdGggZD0iTTI5My4zNyw3NS4yMyBDMjkzLjk1LDg5LjAyIDI5Ni4xNiwxMDguODEgMzAzLjM2LDEyNC41IEMzMDguNDMsMTM1LjUzIDMxMi43NTAyLDE0MS42MzYxIDMyMC42MTAyLDE0OS44MDYxICIgZmlsbD0ibm9uZSIgaWQ9IklucHV0UHJvY2Vzcy10by1Dcm9wU2VsZWN0aW9uIiBzdHlsZT0ic3Ryb2tlOiMxODE4MTg7c3Ryb2tlLXdpZHRoOjEuMDsiLz48cG9seWdvbiBmaWxsPSIjMTgxODE4IiBwb2ludHM9IjMyNC43NywxNTQuMTMsMzIxLjQxMjksMTQ0Ljg3MSwzMjEuMzAzNSwxNTAuNTI2OCwzMTUuNjQ3NywxNTAuNDE3NCwzMjQuNzcsMTU0LjEzIiBzdHlsZT0ic3Ryb2tlOiMxODE4MTg7c3Ryb2tlLXdpZHRoOjEuMDsiLz48dGV4dCBmaWxsPSIjMDAwMDAwIiBmb250LWZhbWlseT0ic2Fucy1zZXJpZiIgZm9udC1zaXplPSIxMyIgbGVuZ3RoQWRqdXN0PSJzcGFjaW5nIiB0ZXh0TGVuZ3RoPSIxMzgiIHg9IjMwNC4zNiIgeT0iMTIyLjc4OTEiPlByb2Nlc3NlZCBQYXJhbWV0ZXJzPC90ZXh0PjwvZz48IS0tbGluayBDcm9wRGF0YXNldCB0byBDcm9wU2VsZWN0aW9uLS0+PGcgaWQ9ImxpbmtfQ3JvcERhdGFzZXRfQ3JvcFNlbGVjdGlvbiI+PHBhdGggZD0iTTQ3OC4wMiw3OS41NCBDNDcxLjQ4LDkzLjc4IDQ2MS4xNiwxMTIuMTggNDQ3LjM2LDEyNC41IEM0MzIuOSwxMzcuNDEgNDE5LjgxNDQsMTQ0Ljk1NjcgNDAyLjMzNDQsMTUyLjE4NjcgIiBmaWxsPSJub25lIiBpZD0iQ3JvcERhdGFzZXQtdG8tQ3JvcFNlbGVjdGlvbiIgc3R5bGU9InN0cm9rZTojMTgxODE4O3N0cm9rZS13aWR0aDoxLjA7Ii8+PHBvbHlnb24gZmlsbD0iIzE4MTgxOCIgcG9pbnRzPSIzOTYuNzksMTU0LjQ4LDQwNi42MzU1LDE1NC43MzY0LDQwMS40MTA0LDE1Mi41Njg5LDQwMy41Nzc4LDE0Ny4zNDM4LDM5Ni43OSwxNTQuNDgiIHN0eWxlPSJzdHJva2U6IzE4MTgxODtzdHJva2Utd2lkdGg6MS4wOyIvPjx0ZXh0IGZpbGw9IiMwMDAwMDAiIGZvbnQtZmFtaWx5PSJzYW5zLXNlcmlmIiBmb250LXNpemU9IjEzIiBsZW5ndGhBZGp1c3Q9InNwYWNpbmciIHRleHRMZW5ndGg9IjYyIiB4PSI0NjAuMzYiIHk9IjEyMi43ODkxIj5Dcm9wIERhdGE8L3RleHQ+PC9nPjwhLS1saW5rIENyb3BTZWxlY3Rpb24gdG8gVXNlci0tPjxnIGlkPSJsaW5rX0Nyb3BTZWxlY3Rpb25fVXNlciI+PHBhdGggZD0iTTMwOS4yMiwxODkuNTUgQzI5My41MSwxOTcuMDQgMjc0LjU4LDIwNS45IDI1Ny4zNiwyMTMuNSBDMTgxLjQ5LDI0Ni45OSA5NC43MDExLDI4MS41ODc1IDYwLjAxMTEsMjk1LjI3NzUgIiBmaWxsPSJub25lIiBpZD0iQ3JvcFNlbGVjdGlvbi10by1Vc2VyIiBzdHlsZT0ic3Ryb2tlOiMxODE4MTg7c3Ryb2tlLXdpZHRoOjEuMDsiLz48cG9seWdvbiBmaWxsPSIjMTgxODE4IiBwb2ludHM9IjU0LjQzLDI5Ny40OCw2NC4yNywyOTcuODk3LDU5LjA4MDksMjk1LjY0NDYsNjEuMzMzMywyOTAuNDU1NSw1NC40MywyOTcuNDgiIHN0eWxlPSJzdHJva2U6IzE4MTgxODtzdHJva2Utd2lkdGg6MS4wOyIvPjx0ZXh0IGZpbGw9IiMwMDAwMDAiIGZvbnQtZmFtaWx5PSJzYW5zLXNlcmlmIiBmb250LXNpemU9IjEzIiBsZW5ndGhBZGp1c3Q9InNwYWNpbmciIHRleHRMZW5ndGg9IjExNyIgeD0iMjM0LjM2IiB5PSIyMzQuNzg5MSI+UmVjb21tZW5kZWQgQ3JvcHM8L3RleHQ+PC9nPjwhLS1TUkM9W1JMMTFRaUNtNEJwaDVPaWxrSVdWeTI2TnZqMUlBMlBmN3gycjlxNFdvS1BRR3FGOXRva2ZqY0VOd1kybmV2dFBzVGRINEhWWkdWV0kxQy1NdUNNOEdMSlNJWF9lOG84R25fQWdaZUtfRU9BZ2Z6MEZUNG5iWDVKdkZtREpoVEhrTFhyMnRvQjZmMVJHMmxraGRSYWRqQnJweTRkSXo5eEVqb1htNU5xaEljVkxfRUE3S1FadnJKNy1NZU9MU0M4Y0laeDV3dHZfc0Z4TlpOeExSdmhVdUdPNGJaNTBGdV9FVDRQay1pSjZOelpRZWQ0bHpyeTduVXVQRFk3OXdSQmlXZ21DUkVQYzh6bDZVanUzN0pLU3MyNWI3WFZzQWk5X29LbGM2eVFaOHREQTFGS1p0SkdmRHlMZmxfaUZdLS0+PC9nPjwvc3ZnPg==;" vertex="1" parent="1">
            <mxGeometry x="195" y="-60" width="555" height="348" as="geometry" />
          </mxCell>
        </UserObject>
        <mxCell id="Ghlr8xUHRVX8Z82gw6-y-3" value="&lt;b&gt;Level 1 Data flow diagram:&lt;/b&gt;" style="text;html=1;align=center;verticalAlign=middle;resizable=0;points=[];autosize=1;strokeColor=none;fillColor=none;" vertex="1" parent="1">
          <mxGeometry x="25" y="-112" width="170" height="30" as="geometry" />
        </mxCell>
      </root>
    </mxGraphModel>
  </diagram>
  <diagram id="f1ob90gogx98BYpacwuF" name="Page-5">
    <mxGraphModel dx="880" dy="2718" grid="1" gridSize="10" guides="1" tooltips="1" connect="1" arrows="1" fold="1" page="1" pageScale="1" pageWidth="1654" pageHeight="2336" math="0" shadow="0">
      <root>
        <mxCell id="0" />
        <mxCell id="1" parent="0" />
        <UserObject label="" plantUmlData="{&#xa;  &quot;data&quot;: &quot;@startuml\nstart\n:User provides input parameters;\nif (Input parameters valid?) then (yes)\n  :Process input parameters;\n  :Retrieve crop dataset;\n  :Use Random Forest algorithm;\n  :Recommend crops;\n  :Display recommended crops to User;\nelse (no)\n  :Display error message;\nendif\nstop\n@enduml\n&quot;,&#xa;  &quot;format&quot;: &quot;svg&quot;&#xa;}" id="zEHqwLoeqsuIkRk2OUo7-2">
          <mxCell style="shape=image;noLabel=1;verticalAlign=top;aspect=fixed;imageAspect=0;image=data:image/svg+xml,PD94bWwgdmVyc2lvbj0iMS4wIiBlbmNvZGluZz0idXMtYXNjaWkiIHN0YW5kYWxvbmU9Im5vIj8+PHN2ZyB4bWxucz0iaHR0cDovL3d3dy53My5vcmcvMjAwMC9zdmciIHhtbG5zOnhsaW5rPSJodHRwOi8vd3d3LnczLm9yZy8xOTk5L3hsaW5rIiBjb250ZW50U3R5bGVUeXBlPSJ0ZXh0L2NzcyIgaGVpZ2h0PSI0NjRweCIgcHJlc2VydmVBc3BlY3RSYXRpbz0ibm9uZSIgc3R5bGU9IndpZHRoOjQ0NHB4O2hlaWdodDo0NjRweDtiYWNrZ3JvdW5kOiNGRkZGRkY7IiB2ZXJzaW9uPSIxLjEiIHZpZXdCb3g9IjAgMCA0NDQgNDY0IiB3aWR0aD0iNDQ0cHgiIHpvb21BbmRQYW49Im1hZ25pZnkiPjxkZWZzLz48Zz48ZWxsaXBzZSBjeD0iMjQxLjUiIGN5PSIyMCIgZmlsbD0iIzIyMjIyMiIgcng9IjEwIiByeT0iMTAiIHN0eWxlPSJzdHJva2U6IzIyMjIyMjtzdHJva2Utd2lkdGg6MS4wOyIvPjxyZWN0IGZpbGw9IiNGMUYxRjEiIGhlaWdodD0iMzIuODQzOCIgcng9IjEyLjUiIHJ5PSIxMi41IiBzdHlsZT0ic3Ryb2tlOiMxODE4MTg7c3Ryb2tlLXdpZHRoOjAuNTsiIHdpZHRoPSIyMjIiIHg9IjEzMC41IiB5PSI1MCIvPjx0ZXh0IGZpbGw9IiMwMDAwMDAiIGZvbnQtZmFtaWx5PSJzYW5zLXNlcmlmIiBmb250LXNpemU9IjEyIiBsZW5ndGhBZGp1c3Q9InNwYWNpbmciIHRleHRMZW5ndGg9IjIwMiIgeD0iMTQwLjUiIHk9IjcxLjM0MzgiPlVzZXIgcHJvdmlkZXMgaW5wdXQgcGFyYW1ldGVyczwvdGV4dD48cG9seWdvbiBmaWxsPSIjRjFGMUYxIiBwb2ludHM9IjE3Mi41LDEwMi44NDM4LDMxMC41LDEwMi44NDM4LDMyMi41LDExNC44NDM4LDMxMC41LDEyNi44NDM4LDE3Mi41LDEyNi44NDM4LDE2MC41LDExNC44NDM4LDE3Mi41LDEwMi44NDM4IiBzdHlsZT0ic3Ryb2tlOiMxODE4MTg7c3Ryb2tlLXdpZHRoOjAuNTsiLz48dGV4dCBmaWxsPSIjMDAwMDAwIiBmb250LWZhbWlseT0ic2Fucy1zZXJpZiIgZm9udC1zaXplPSIxMSIgbGVuZ3RoQWRqdXN0PSJzcGFjaW5nIiB0ZXh0TGVuZ3RoPSIxMzgiIHg9IjE3Mi41IiB5PSIxMTkuMzU1NSI+SW5wdXQgcGFyYW1ldGVycyB2YWxpZD88L3RleHQ+PHRleHQgZmlsbD0iIzAwMDAwMCIgZm9udC1mYW1pbHk9InNhbnMtc2VyaWYiIGZvbnQtc2l6ZT0iMTEiIGxlbmd0aEFkanVzdD0ic3BhY2luZyIgdGV4dExlbmd0aD0iMTgiIHg9IjE0Mi41IiB5PSIxMTMuNDY4OCI+eWVzPC90ZXh0Pjx0ZXh0IGZpbGw9IiMwMDAwMDAiIGZvbnQtZmFtaWx5PSJzYW5zLXNlcmlmIiBmb250LXNpemU9IjExIiBsZW5ndGhBZGp1c3Q9InNwYWNpbmciIHRleHRMZW5ndGg9IjEyIiB4PSIzMjIuNSIgeT0iMTEzLjQ2ODgiPm5vPC90ZXh0PjxyZWN0IGZpbGw9IiNGMUYxRjEiIGhlaWdodD0iMzIuODQzOCIgcng9IjEyLjUiIHJ5PSIxMi41IiBzdHlsZT0ic3Ryb2tlOiMxODE4MTg7c3Ryb2tlLXdpZHRoOjAuNTsiIHdpZHRoPSIxODEiIHg9IjQwLjUiIHk9IjEzNi44NDM4Ii8+PHRleHQgZmlsbD0iIzAwMDAwMCIgZm9udC1mYW1pbHk9InNhbnMtc2VyaWYiIGZvbnQtc2l6ZT0iMTIiIGxlbmd0aEFkanVzdD0ic3BhY2luZyIgdGV4dExlbmd0aD0iMTYxIiB4PSI1MC41IiB5PSIxNTguMTg3NSI+UHJvY2VzcyBpbnB1dCBwYXJhbWV0ZXJzPC90ZXh0PjxyZWN0IGZpbGw9IiNGMUYxRjEiIGhlaWdodD0iMzIuODQzOCIgcng9IjEyLjUiIHJ5PSIxMi41IiBzdHlsZT0ic3Ryb2tlOiMxODE4MTg7c3Ryb2tlLXdpZHRoOjAuNTsiIHdpZHRoPSIxNjAiIHg9IjUxIiB5PSIxODkuNjg3NSIvPjx0ZXh0IGZpbGw9IiMwMDAwMDAiIGZvbnQtZmFtaWx5PSJzYW5zLXNlcmlmIiBmb250LXNpemU9IjEyIiBsZW5ndGhBZGp1c3Q9InNwYWNpbmciIHRleHRMZW5ndGg9IjE0MCIgeD0iNjEiIHk9IjIxMS4wMzEzIj5SZXRyaWV2ZSBjcm9wIGRhdGFzZXQ8L3RleHQ+PHJlY3QgZmlsbD0iI0YxRjFGMSIgaGVpZ2h0PSIzMi44NDM4IiByeD0iMTIuNSIgcnk9IjEyLjUiIHN0eWxlPSJzdHJva2U6IzE4MTgxODtzdHJva2Utd2lkdGg6MC41OyIgd2lkdGg9IjE5OSIgeD0iMzEuNSIgeT0iMjQyLjUzMTMiLz48dGV4dCBmaWxsPSIjMDAwMDAwIiBmb250LWZhbWlseT0ic2Fucy1zZXJpZiIgZm9udC1zaXplPSIxMiIgbGVuZ3RoQWRqdXN0PSJzcGFjaW5nIiB0ZXh0TGVuZ3RoPSIxNzkiIHg9IjQxLjUiIHk9IjI2My44NzUiPlVzZSBSYW5kb20gRm9yZXN0IGFsZ29yaXRobTwvdGV4dD48cmVjdCBmaWxsPSIjRjFGMUYxIiBoZWlnaHQ9IjMyLjg0MzgiIHJ4PSIxMi41IiByeT0iMTIuNSIgc3R5bGU9InN0cm9rZTojMTgxODE4O3N0cm9rZS13aWR0aDowLjU7IiB3aWR0aD0iMTIwIiB4PSI3MSIgeT0iMjk1LjM3NSIvPjx0ZXh0IGZpbGw9IiMwMDAwMDAiIGZvbnQtZmFtaWx5PSJzYW5zLXNlcmlmIiBmb250LXNpemU9IjEyIiBsZW5ndGhBZGp1c3Q9InNwYWNpbmciIHRleHRMZW5ndGg9IjEwMCIgeD0iODEiIHk9IjMxNi43MTg4Ij5SZWNvbW1lbmQgY3JvcHM8L3RleHQ+PHJlY3QgZmlsbD0iI0YxRjFGMSIgaGVpZ2h0PSIzMi44NDM4IiByeD0iMTIuNSIgcnk9IjEyLjUiIHN0eWxlPSJzdHJva2U6IzE4MTgxODtzdHJva2Utd2lkdGg6MC41OyIgd2lkdGg9IjI0MCIgeD0iMTEiIHk9IjM0OC4yMTg4Ii8+PHRleHQgZmlsbD0iIzAwMDAwMCIgZm9udC1mYW1pbHk9InNhbnMtc2VyaWYiIGZvbnQtc2l6ZT0iMTIiIGxlbmd0aEFkanVzdD0ic3BhY2luZyIgdGV4dExlbmd0aD0iMjIwIiB4PSIyMSIgeT0iMzY5LjU2MjUiPkRpc3BsYXkgcmVjb21tZW5kZWQgY3JvcHMgdG8gVXNlcjwvdGV4dD48cmVjdCBmaWxsPSIjRjFGMUYxIiBoZWlnaHQ9IjMyLjg0MzgiIHJ4PSIxMi41IiByeT0iMTIuNSIgc3R5bGU9InN0cm9rZTojMTgxODE4O3N0cm9rZS13aWR0aDowLjU7IiB3aWR0aD0iMTYyIiB4PSIyNzEiIHk9IjEzNi44NDM4Ii8+PHRleHQgZmlsbD0iIzAwMDAwMCIgZm9udC1mYW1pbHk9InNhbnMtc2VyaWYiIGZvbnQtc2l6ZT0iMTIiIGxlbmd0aEFkanVzdD0ic3BhY2luZyIgdGV4dExlbmd0aD0iMTQyIiB4PSIyODEiIHk9IjE1OC4xODc1Ij5EaXNwbGF5IGVycm9yIG1lc3NhZ2U8L3RleHQ+PHBvbHlnb24gZmlsbD0iI0YxRjFGMSIgcG9pbnRzPSIyNDEuNSwzODcuMDYyNSwyNTMuNSwzOTkuMDYyNSwyNDEuNSw0MTEuMDYyNSwyMjkuNSwzOTkuMDYyNSwyNDEuNSwzODcuMDYyNSIgc3R5bGU9InN0cm9rZTojMTgxODE4O3N0cm9rZS13aWR0aDowLjU7Ii8+PGVsbGlwc2UgY3g9IjI0MS41IiBjeT0iNDQyLjA2MjUiIGZpbGw9Im5vbmUiIHJ4PSIxMSIgcnk9IjExIiBzdHlsZT0ic3Ryb2tlOiMyMjIyMjI7c3Ryb2tlLXdpZHRoOjEuMDsiLz48ZWxsaXBzZSBjeD0iMjQxLjUiIGN5PSI0NDIuMDYyNSIgZmlsbD0iIzIyMjIyMiIgcng9IjYiIHJ5PSI2IiBzdHlsZT0ic3Ryb2tlOiMyMjIyMjI7c3Ryb2tlLXdpZHRoOjEuMDsiLz48bGluZSBzdHlsZT0ic3Ryb2tlOiMxODE4MTg7c3Ryb2tlLXdpZHRoOjEuMDsiIHgxPSIyNDEuNSIgeDI9IjI0MS41IiB5MT0iMzAiIHkyPSI1MCIvPjxwb2x5Z29uIGZpbGw9IiMxODE4MTgiIHBvaW50cz0iMjM3LjUsNDAsMjQxLjUsNTAsMjQ1LjUsNDAsMjQxLjUsNDQiIHN0eWxlPSJzdHJva2U6IzE4MTgxODtzdHJva2Utd2lkdGg6MS4wOyIvPjxsaW5lIHN0eWxlPSJzdHJva2U6IzE4MTgxODtzdHJva2Utd2lkdGg6MS4wOyIgeDE9IjEzMSIgeDI9IjEzMSIgeTE9IjE2OS42ODc1IiB5Mj0iMTg5LjY4NzUiLz48cG9seWdvbiBmaWxsPSIjMTgxODE4IiBwb2ludHM9IjEyNywxNzkuNjg3NSwxMzEsMTg5LjY4NzUsMTM1LDE3OS42ODc1LDEzMSwxODMuNjg3NSIgc3R5bGU9InN0cm9rZTojMTgxODE4O3N0cm9rZS13aWR0aDoxLjA7Ii8+PGxpbmUgc3R5bGU9InN0cm9rZTojMTgxODE4O3N0cm9rZS13aWR0aDoxLjA7IiB4MT0iMTMxIiB4Mj0iMTMxIiB5MT0iMjIyLjUzMTMiIHkyPSIyNDIuNTMxMyIvPjxwb2x5Z29uIGZpbGw9IiMxODE4MTgiIHBvaW50cz0iMTI3LDIzMi41MzEzLDEzMSwyNDIuNTMxMywxMzUsMjMyLjUzMTMsMTMxLDIzNi41MzEzIiBzdHlsZT0ic3Ryb2tlOiMxODE4MTg7c3Ryb2tlLXdpZHRoOjEuMDsiLz48bGluZSBzdHlsZT0ic3Ryb2tlOiMxODE4MTg7c3Ryb2tlLXdpZHRoOjEuMDsiIHgxPSIxMzEiIHgyPSIxMzEiIHkxPSIyNzUuMzc1IiB5Mj0iMjk1LjM3NSIvPjxwb2x5Z29uIGZpbGw9IiMxODE4MTgiIHBvaW50cz0iMTI3LDI4NS4zNzUsMTMxLDI5NS4zNzUsMTM1LDI4NS4zNzUsMTMxLDI4OS4zNzUiIHN0eWxlPSJzdHJva2U6IzE4MTgxODtzdHJva2Utd2lkdGg6MS4wOyIvPjxsaW5lIHN0eWxlPSJzdHJva2U6IzE4MTgxODtzdHJva2Utd2lkdGg6MS4wOyIgeDE9IjEzMSIgeDI9IjEzMSIgeTE9IjMyOC4yMTg4IiB5Mj0iMzQ4LjIxODgiLz48cG9seWdvbiBmaWxsPSIjMTgxODE4IiBwb2ludHM9IjEyNywzMzguMjE4OCwxMzEsMzQ4LjIxODgsMTM1LDMzOC4yMTg4LDEzMSwzNDIuMjE4OCIgc3R5bGU9InN0cm9rZTojMTgxODE4O3N0cm9rZS13aWR0aDoxLjA7Ii8+PGxpbmUgc3R5bGU9InN0cm9rZTojMTgxODE4O3N0cm9rZS13aWR0aDoxLjA7IiB4MT0iMTYwLjUiIHgyPSIxMzEiIHkxPSIxMTQuODQzOCIgeTI9IjExNC44NDM4Ii8+PGxpbmUgc3R5bGU9InN0cm9rZTojMTgxODE4O3N0cm9rZS13aWR0aDoxLjA7IiB4MT0iMTMxIiB4Mj0iMTMxIiB5MT0iMTE0Ljg0MzgiIHkyPSIxMzYuODQzOCIvPjxwb2x5Z29uIGZpbGw9IiMxODE4MTgiIHBvaW50cz0iMTI3LDEyNi44NDM4LDEzMSwxMzYuODQzOCwxMzUsMTI2Ljg0MzgsMTMxLDEzMC44NDM4IiBzdHlsZT0ic3Ryb2tlOiMxODE4MTg7c3Ryb2tlLXdpZHRoOjEuMDsiLz48bGluZSBzdHlsZT0ic3Ryb2tlOiMxODE4MTg7c3Ryb2tlLXdpZHRoOjEuMDsiIHgxPSIzMjIuNSIgeDI9IjM1MiIgeTE9IjExNC44NDM4IiB5Mj0iMTE0Ljg0MzgiLz48bGluZSBzdHlsZT0ic3Ryb2tlOiMxODE4MTg7c3Ryb2tlLXdpZHRoOjEuMDsiIHgxPSIzNTIiIHgyPSIzNTIiIHkxPSIxMTQuODQzOCIgeTI9IjEzNi44NDM4Ii8+PHBvbHlnb24gZmlsbD0iIzE4MTgxOCIgcG9pbnRzPSIzNDgsMTI2Ljg0MzgsMzUyLDEzNi44NDM4LDM1NiwxMjYuODQzOCwzNTIsMTMwLjg0MzgiIHN0eWxlPSJzdHJva2U6IzE4MTgxODtzdHJva2Utd2lkdGg6MS4wOyIvPjxsaW5lIHN0eWxlPSJzdHJva2U6IzE4MTgxODtzdHJva2Utd2lkdGg6MS4wOyIgeDE9IjEzMSIgeDI9IjEzMSIgeTE9IjM4MS4wNjI1IiB5Mj0iMzk5LjA2MjUiLz48bGluZSBzdHlsZT0ic3Ryb2tlOiMxODE4MTg7c3Ryb2tlLXdpZHRoOjEuMDsiIHgxPSIxMzEiIHgyPSIyMjkuNSIgeTE9IjM5OS4wNjI1IiB5Mj0iMzk5LjA2MjUiLz48cG9seWdvbiBmaWxsPSIjMTgxODE4IiBwb2ludHM9IjIxOS41LDM5NS4wNjI1LDIyOS41LDM5OS4wNjI1LDIxOS41LDQwMy4wNjI1LDIyMy41LDM5OS4wNjI1IiBzdHlsZT0ic3Ryb2tlOiMxODE4MTg7c3Ryb2tlLXdpZHRoOjEuMDsiLz48bGluZSBzdHlsZT0ic3Ryb2tlOiMxODE4MTg7c3Ryb2tlLXdpZHRoOjEuMDsiIHgxPSIzNTIiIHgyPSIzNTIiIHkxPSIxNjkuNjg3NSIgeTI9IjM5OS4wNjI1Ii8+PGxpbmUgc3R5bGU9InN0cm9rZTojMTgxODE4O3N0cm9rZS13aWR0aDoxLjA7IiB4MT0iMzUyIiB4Mj0iMjUzLjUiIHkxPSIzOTkuMDYyNSIgeTI9IjM5OS4wNjI1Ii8+PHBvbHlnb24gZmlsbD0iIzE4MTgxOCIgcG9pbnRzPSIyNjMuNSwzOTUuMDYyNSwyNTMuNSwzOTkuMDYyNSwyNjMuNSw0MDMuMDYyNSwyNTkuNSwzOTkuMDYyNSIgc3R5bGU9InN0cm9rZTojMTgxODE4O3N0cm9rZS13aWR0aDoxLjA7Ii8+PGxpbmUgc3R5bGU9InN0cm9rZTojMTgxODE4O3N0cm9rZS13aWR0aDoxLjA7IiB4MT0iMjQxLjUiIHgyPSIyNDEuNSIgeTE9IjgyLjg0MzgiIHkyPSIxMDIuODQzOCIvPjxwb2x5Z29uIGZpbGw9IiMxODE4MTgiIHBvaW50cz0iMjM3LjUsOTIuODQzOCwyNDEuNSwxMDIuODQzOCwyNDUuNSw5Mi44NDM4LDI0MS41LDk2Ljg0MzgiIHN0eWxlPSJzdHJva2U6IzE4MTgxODtzdHJva2Utd2lkdGg6MS4wOyIvPjxsaW5lIHN0eWxlPSJzdHJva2U6IzE4MTgxODtzdHJva2Utd2lkdGg6MS4wOyIgeDE9IjI0MS41IiB4Mj0iMjQxLjUiIHkxPSI0MTEuMDYyNSIgeTI9IjQzMS4wNjI1Ii8+PHBvbHlnb24gZmlsbD0iIzE4MTgxOCIgcG9pbnRzPSIyMzcuNSw0MjEuMDYyNSwyNDEuNSw0MzEuMDYyNSwyNDUuNSw0MjEuMDYyNSwyNDEuNSw0MjUuMDYyNSIgc3R5bGU9InN0cm9rZTojMTgxODE4O3N0cm9rZS13aWR0aDoxLjA7Ii8+PCEtLVNSQz1bUk9fMVFXQ24zNEpsX2VldnhsdjJTaVliNTc4aFdOdzBNNHlJbXplb2FoQUdsdy1SZmIxQWhkZXBadjY3TUFKVGZ6RkdKUlVJd0lZanRtOVRKMmczdmxqS3BmWUVfd3hPUDJ0dkMyRWtSOVprejNhMWttX0pYVnZBQ2syOU9PS1JpUFhzUDBibm5lRUMxSlg5b3JobmhhT0ZvN2ZIQXQ2anAtUVlqUkJiSF9ON3piUXlodEE3X0o4LUFLQm5fVDgtU0h0VWdVZHlEcXlwRFRJbktZdVNjUFJCRU5iZV9tODBdLS0+PC9nPjwvc3ZnPg==;" vertex="1" parent="1">
            <mxGeometry x="250" y="-110" width="444" height="464" as="geometry" />
          </mxCell>
        </UserObject>
        <mxCell id="zEHqwLoeqsuIkRk2OUo7-3" value="&lt;b&gt;&lt;font style=&quot;font-size: 19px;&quot;&gt;Activity Diagram:&lt;/font&gt;&lt;/b&gt;" style="text;html=1;align=center;verticalAlign=middle;resizable=0;points=[];autosize=1;strokeColor=none;fillColor=none;" vertex="1" parent="1">
          <mxGeometry x="60" y="-167" width="180" height="40" as="geometry" />
        </mxCell>
      </root>
    </mxGraphModel>
  </diagram>
  <diagram id="qlKR0rcF2DTN_rGHNhnB" name="Page-6">
    <mxGraphModel dx="2534" dy="382" grid="1" gridSize="10" guides="1" tooltips="1" connect="1" arrows="1" fold="1" page="1" pageScale="1" pageWidth="1654" pageHeight="2336" math="0" shadow="0">
      <root>
        <mxCell id="0" />
        <mxCell id="1" parent="0" />
        <UserObject label="" plantUmlData="{&#xa;  &quot;data&quot;: &quot;@startuml\nactor User\nparticipant \&quot;Crop Recommendation System\&quot; as CRS\nparticipant \&quot;RandomForest\&quot; as RF\ndatabase \&quot;Crop Dataset\&quot; as CropDataset\n\nUser -&gt; CRS: inputParameters(phosphorus, potassium, nitrogen, temperature, humidity, rainfall)\nactivate CRS\nCRS -&gt; RF: recommendCrops(phosphorus, potassium, nitrogen, temperature, humidity, rainfall)\nactivate RF\nRF -&gt; CropDataset: getCropData()\nactivate CropDataset\nCropDataset --&gt; RF: Crop data\nRF --&gt; CRS: Recommended crops\ndeactivate CropDataset\ndeactivate RF\nCRS --&gt; User: Recommended crops\ndeactivate CRS\n@enduml\n&quot;,&#xa;  &quot;format&quot;: &quot;svg&quot;&#xa;}" id="qvHnaUszY7rLW8vbcGou-1">
          <mxCell style="shape=image;noLabel=1;verticalAlign=top;aspect=fixed;imageAspect=0;image=data:image/svg+xml,PD94bWwgdmVyc2lvbj0iMS4wIiBlbmNvZGluZz0idXMtYXNjaWkiIHN0YW5kYWxvbmU9Im5vIj8+PHN2ZyB4bWxucz0iaHR0cDovL3d3dy53My5vcmcvMjAwMC9zdmciIHhtbG5zOnhsaW5rPSJodHRwOi8vd3d3LnczLm9yZy8xOTk5L3hsaW5rIiBjb250ZW50U3R5bGVUeXBlPSJ0ZXh0L2NzcyIgaGVpZ2h0PSIzNDZweCIgcHJlc2VydmVBc3BlY3RSYXRpbz0ibm9uZSIgc3R5bGU9IndpZHRoOjEzMTJweDtoZWlnaHQ6MzQ2cHg7YmFja2dyb3VuZDojRkZGRkZGOyIgdmVyc2lvbj0iMS4xIiB2aWV3Qm94PSIwIDAgMTMxMiAzNDYiIHdpZHRoPSIxMzEycHgiIHpvb21BbmRQYW49Im1hZ25pZnkiPjxkZWZzLz48Zz48cmVjdCBmaWxsPSIjRkZGRkZGIiBoZWlnaHQ9IjEzOS41NzAzIiBzdHlsZT0ic3Ryb2tlOiMxODE4MTg7c3Ryb2tlLXdpZHRoOjEuMDsiIHdpZHRoPSIxMCIgeD0iNTgxIiB5PSIxMDkuODk4NCIvPjxyZWN0IGZpbGw9IiNGRkZGRkYiIGhlaWdodD0iODMuNzQyMiIgc3R5bGU9InN0cm9rZTojMTgxODE4O3N0cm9rZS13aWR0aDoxLjA7IiB3aWR0aD0iMTAiIHg9IjExNDUiIHk9IjEzNy44MTI1Ii8+PHJlY3QgZmlsbD0iI0ZGRkZGRiIgaGVpZ2h0PSI1NS44MjgxIiBzdHlsZT0ic3Ryb2tlOiMxODE4MTg7c3Ryb2tlLXdpZHRoOjEuMDsiIHdpZHRoPSIxMCIgeD0iMTI2MSIgeT0iMTY1LjcyNjYiLz48bGluZSBzdHlsZT0ic3Ryb2tlOiMxODE4MTg7c3Ryb2tlLXdpZHRoOjAuNTtzdHJva2UtZGFzaGFycmF5OjUuMCw1LjA7IiB4MT0iMjIiIHgyPSIyMiIgeTE9Ijc5Ljk4NDQiIHkyPSIyNjcuNDY4OCIvPjxsaW5lIHN0eWxlPSJzdHJva2U6IzE4MTgxODtzdHJva2Utd2lkdGg6MC41O3N0cm9rZS1kYXNoYXJyYXk6NS4wLDUuMDsiIHgxPSI1ODUuNSIgeDI9IjU4NS41IiB5MT0iNzkuOTg0NCIgeTI9IjI2Ny40Njg4Ii8+PGxpbmUgc3R5bGU9InN0cm9rZTojMTgxODE4O3N0cm9rZS13aWR0aDowLjU7c3Ryb2tlLWRhc2hhcnJheTo1LjAsNS4wOyIgeDE9IjExNDkuNSIgeDI9IjExNDkuNSIgeTE9Ijc5Ljk4NDQiIHkyPSIyNjcuNDY4OCIvPjxsaW5lIHN0eWxlPSJzdHJva2U6IzE4MTgxODtzdHJva2Utd2lkdGg6MC41O3N0cm9rZS1kYXNoYXJyYXk6NS4wLDUuMDsiIHgxPSIxMjY2IiB4Mj0iMTI2NiIgeTE9Ijc5Ljk4NDQiIHkyPSIyNjcuNDY4OCIvPjx0ZXh0IGZpbGw9IiMwMDAwMDAiIGZvbnQtZmFtaWx5PSJzYW5zLXNlcmlmIiBmb250LXNpemU9IjE0IiBsZW5ndGhBZGp1c3Q9InNwYWNpbmciIHRleHRMZW5ndGg9IjI4IiB4PSI1IiB5PSI3OC4yMzQ0Ij5Vc2VyPC90ZXh0PjxlbGxpcHNlIGN4PSIyMiIgY3k9IjEzLjUiIGZpbGw9IiNFMkUyRjAiIHJ4PSI4IiByeT0iOCIgc3R5bGU9InN0cm9rZTojMTgxODE4O3N0cm9rZS13aWR0aDowLjU7Ii8+PHBhdGggZD0iTTIyLDIxLjUgTDIyLDQ4LjUgTTksMjkuNSBMMzUsMjkuNSBNMjIsNDguNSBMOSw2My41IE0yMiw0OC41IEwzNSw2My41ICIgZmlsbD0ibm9uZSIgc3R5bGU9InN0cm9rZTojMTgxODE4O3N0cm9rZS13aWR0aDowLjU7Ii8+PHRleHQgZmlsbD0iIzAwMDAwMCIgZm9udC1mYW1pbHk9InNhbnMtc2VyaWYiIGZvbnQtc2l6ZT0iMTQiIGxlbmd0aEFkanVzdD0ic3BhY2luZyIgdGV4dExlbmd0aD0iMjgiIHg9IjUiIHk9IjI3OS43MDMxIj5Vc2VyPC90ZXh0PjxlbGxpcHNlIGN4PSIyMiIgY3k9IjI4OS45NTMxIiBmaWxsPSIjRTJFMkYwIiByeD0iOCIgcnk9IjgiIHN0eWxlPSJzdHJva2U6IzE4MTgxODtzdHJva2Utd2lkdGg6MC41OyIvPjxwYXRoIGQ9Ik0yMiwyOTcuOTUzMSBMMjIsMzI0Ljk1MzEgTTksMzA1Ljk1MzEgTDM1LDMwNS45NTMxIE0yMiwzMjQuOTUzMSBMOSwzMzkuOTUzMSBNMjIsMzI0Ljk1MzEgTDM1LDMzOS45NTMxICIgZmlsbD0ibm9uZSIgc3R5bGU9InN0cm9rZTojMTgxODE4O3N0cm9rZS13aWR0aDowLjU7Ii8+PHJlY3QgZmlsbD0iI0UyRTJGMCIgaGVpZ2h0PSIyOC45ODQ0IiByeD0iMi41IiByeT0iMi41IiBzdHlsZT0ic3Ryb2tlOiMxODE4MTg7c3Ryb2tlLXdpZHRoOjAuNTsiIHdpZHRoPSIxOTkiIHg9IjQ4Ni41IiB5PSI1MCIvPjx0ZXh0IGZpbGw9IiMwMDAwMDAiIGZvbnQtZmFtaWx5PSJzYW5zLXNlcmlmIiBmb250LXNpemU9IjE0IiBsZW5ndGhBZGp1c3Q9InNwYWNpbmciIHRleHRMZW5ndGg9IjE4NSIgeD0iNDkzLjUiIHk9IjcwLjIzNDQiPkNyb3AgUmVjb21tZW5kYXRpb24gU3lzdGVtPC90ZXh0PjxyZWN0IGZpbGw9IiNFMkUyRjAiIGhlaWdodD0iMjguOTg0NCIgcng9IjIuNSIgcnk9IjIuNSIgc3R5bGU9InN0cm9rZTojMTgxODE4O3N0cm9rZS13aWR0aDowLjU7IiB3aWR0aD0iMTk5IiB4PSI0ODYuNSIgeT0iMjY2LjQ2ODgiLz48dGV4dCBmaWxsPSIjMDAwMDAwIiBmb250LWZhbWlseT0ic2Fucy1zZXJpZiIgZm9udC1zaXplPSIxNCIgbGVuZ3RoQWRqdXN0PSJzcGFjaW5nIiB0ZXh0TGVuZ3RoPSIxODUiIHg9IjQ5My41IiB5PSIyODYuNzAzMSI+Q3JvcCBSZWNvbW1lbmRhdGlvbiBTeXN0ZW08L3RleHQ+PHJlY3QgZmlsbD0iI0UyRTJGMCIgaGVpZ2h0PSIyOC45ODQ0IiByeD0iMi41IiByeT0iMi41IiBzdHlsZT0ic3Ryb2tlOiMxODE4MTg7c3Ryb2tlLXdpZHRoOjAuNTsiIHdpZHRoPSI5OSIgeD0iMTEwMC41IiB5PSI1MCIvPjx0ZXh0IGZpbGw9IiMwMDAwMDAiIGZvbnQtZmFtaWx5PSJzYW5zLXNlcmlmIiBmb250LXNpemU9IjE0IiBsZW5ndGhBZGp1c3Q9InNwYWNpbmciIHRleHRMZW5ndGg9Ijg1IiB4PSIxMTA3LjUiIHk9IjcwLjIzNDQiPlJhbmRvbUZvcmVzdDwvdGV4dD48cmVjdCBmaWxsPSIjRTJFMkYwIiBoZWlnaHQ9IjI4Ljk4NDQiIHJ4PSIyLjUiIHJ5PSIyLjUiIHN0eWxlPSJzdHJva2U6IzE4MTgxODtzdHJva2Utd2lkdGg6MC41OyIgd2lkdGg9Ijk5IiB4PSIxMTAwLjUiIHk9IjI2Ni40Njg4Ii8+PHRleHQgZmlsbD0iIzAwMDAwMCIgZm9udC1mYW1pbHk9InNhbnMtc2VyaWYiIGZvbnQtc2l6ZT0iMTQiIGxlbmd0aEFkanVzdD0ic3BhY2luZyIgdGV4dExlbmd0aD0iODUiIHg9IjExMDcuNSIgeT0iMjg2LjcwMzEiPlJhbmRvbUZvcmVzdDwvdGV4dD48dGV4dCBmaWxsPSIjMDAwMDAwIiBmb250LWZhbWlseT0ic2Fucy1zZXJpZiIgZm9udC1zaXplPSIxNCIgbGVuZ3RoQWRqdXN0PSJzcGFjaW5nIiB0ZXh0TGVuZ3RoPSI4NCIgeD0iMTIyMSIgeT0iNzguMjM0NCI+Q3JvcCBEYXRhc2V0PC90ZXh0PjxwYXRoIGQ9Ik0xMjQ4LDI5IEMxMjQ4LDE5IDEyNjYsMTkgMTI2NiwxOSBDMTI2NiwxOSAxMjg0LDE5IDEyODQsMjkgTDEyODQsNTUgQzEyODQsNjUgMTI2Niw2NSAxMjY2LDY1IEMxMjY2LDY1IDEyNDgsNjUgMTI0OCw1NSBMMTI0OCwyOSAiIGZpbGw9IiNFMkUyRjAiIHN0eWxlPSJzdHJva2U6IzE4MTgxODtzdHJva2Utd2lkdGg6MS41OyIvPjxwYXRoIGQ9Ik0xMjQ4LDI5IEMxMjQ4LDM5IDEyNjYsMzkgMTI2NiwzOSBDMTI2NiwzOSAxMjg0LDM5IDEyODQsMjkgIiBmaWxsPSJub25lIiBzdHlsZT0ic3Ryb2tlOiMxODE4MTg7c3Ryb2tlLXdpZHRoOjEuNTsiLz48dGV4dCBmaWxsPSIjMDAwMDAwIiBmb250LWZhbWlseT0ic2Fucy1zZXJpZiIgZm9udC1zaXplPSIxNCIgbGVuZ3RoQWRqdXN0PSJzcGFjaW5nIiB0ZXh0TGVuZ3RoPSI4NCIgeD0iMTIyMSIgeT0iMjc5LjcwMzEiPkNyb3AgRGF0YXNldDwvdGV4dD48cGF0aCBkPSJNMTI0OCwyOTEuNDUzMSBDMTI0OCwyODEuNDUzMSAxMjY2LDI4MS40NTMxIDEyNjYsMjgxLjQ1MzEgQzEyNjYsMjgxLjQ1MzEgMTI4NCwyODEuNDUzMSAxMjg0LDI5MS40NTMxIEwxMjg0LDMxNy40NTMxIEMxMjg0LDMyNy40NTMxIDEyNjYsMzI3LjQ1MzEgMTI2NiwzMjcuNDUzMSBDMTI2NiwzMjcuNDUzMSAxMjQ4LDMyNy40NTMxIDEyNDgsMzE3LjQ1MzEgTDEyNDgsMjkxLjQ1MzEgIiBmaWxsPSIjRTJFMkYwIiBzdHlsZT0ic3Ryb2tlOiMxODE4MTg7c3Ryb2tlLXdpZHRoOjEuNTsiLz48cGF0aCBkPSJNMTI0OCwyOTEuNDUzMSBDMTI0OCwzMDEuNDUzMSAxMjY2LDMwMS40NTMxIDEyNjYsMzAxLjQ1MzEgQzEyNjYsMzAxLjQ1MzEgMTI4NCwzMDEuNDUzMSAxMjg0LDI5MS40NTMxICIgZmlsbD0ibm9uZSIgc3R5bGU9InN0cm9rZTojMTgxODE4O3N0cm9rZS13aWR0aDoxLjU7Ii8+PHJlY3QgZmlsbD0iI0ZGRkZGRiIgaGVpZ2h0PSIxMzkuNTcwMyIgc3R5bGU9InN0cm9rZTojMTgxODE4O3N0cm9rZS13aWR0aDoxLjA7IiB3aWR0aD0iMTAiIHg9IjU4MSIgeT0iMTA5Ljg5ODQiLz48cmVjdCBmaWxsPSIjRkZGRkZGIiBoZWlnaHQ9IjgzLjc0MjIiIHN0eWxlPSJzdHJva2U6IzE4MTgxODtzdHJva2Utd2lkdGg6MS4wOyIgd2lkdGg9IjEwIiB4PSIxMTQ1IiB5PSIxMzcuODEyNSIvPjxyZWN0IGZpbGw9IiNGRkZGRkYiIGhlaWdodD0iNTUuODI4MSIgc3R5bGU9InN0cm9rZTojMTgxODE4O3N0cm9rZS13aWR0aDoxLjA7IiB3aWR0aD0iMTAiIHg9IjEyNjEiIHk9IjE2NS43MjY2Ii8+PHBvbHlnb24gZmlsbD0iIzE4MTgxOCIgcG9pbnRzPSI1NjksMTA1Ljg5ODQsNTc5LDEwOS44OTg0LDU2OSwxMTMuODk4NCw1NzMsMTA5Ljg5ODQiIHN0eWxlPSJzdHJva2U6IzE4MTgxODtzdHJva2Utd2lkdGg6MS4wOyIvPjxsaW5lIHN0eWxlPSJzdHJva2U6IzE4MTgxODtzdHJva2Utd2lkdGg6MS4wOyIgeDE9IjIyIiB4Mj0iNTc1IiB5MT0iMTA5Ljg5ODQiIHkyPSIxMDkuODk4NCIvPjx0ZXh0IGZpbGw9IiMwMDAwMDAiIGZvbnQtZmFtaWx5PSJzYW5zLXNlcmlmIiBmb250LXNpemU9IjEzIiBsZW5ndGhBZGp1c3Q9InNwYWNpbmciIHRleHRMZW5ndGg9IjU0MCIgeD0iMjkiIHk9IjEwNi4yNzM0Ij5pbnB1dFBhcmFtZXRlcnMocGhvc3Bob3J1cywgcG90YXNzaXVtLCBuaXRyb2dlbiwgdGVtcGVyYXR1cmUsIGh1bWlkaXR5LCByYWluZmFsbCk8L3RleHQ+PHBvbHlnb24gZmlsbD0iIzE4MTgxOCIgcG9pbnRzPSIxMTMzLDEzMy44MTI1LDExNDMsMTM3LjgxMjUsMTEzMywxNDEuODEyNSwxMTM3LDEzNy44MTI1IiBzdHlsZT0ic3Ryb2tlOiMxODE4MTg7c3Ryb2tlLXdpZHRoOjEuMDsiLz48bGluZSBzdHlsZT0ic3Ryb2tlOiMxODE4MTg7c3Ryb2tlLXdpZHRoOjEuMDsiIHgxPSI1OTEiIHgyPSIxMTM5IiB5MT0iMTM3LjgxMjUiIHkyPSIxMzcuODEyNSIvPjx0ZXh0IGZpbGw9IiMwMDAwMDAiIGZvbnQtZmFtaWx5PSJzYW5zLXNlcmlmIiBmb250LXNpemU9IjEzIiBsZW5ndGhBZGp1c3Q9InNwYWNpbmciIHRleHRMZW5ndGg9IjUzNSIgeD0iNTk4IiB5PSIxMzQuMTg3NSI+cmVjb21tZW5kQ3JvcHMocGhvc3Bob3J1cywgcG90YXNzaXVtLCBuaXRyb2dlbiwgdGVtcGVyYXR1cmUsIGh1bWlkaXR5LCByYWluZmFsbCk8L3RleHQ+PHBvbHlnb24gZmlsbD0iIzE4MTgxOCIgcG9pbnRzPSIxMjQ5LDE2MS43MjY2LDEyNTksMTY1LjcyNjYsMTI0OSwxNjkuNzI2NiwxMjUzLDE2NS43MjY2IiBzdHlsZT0ic3Ryb2tlOiMxODE4MTg7c3Ryb2tlLXdpZHRoOjEuMDsiLz48bGluZSBzdHlsZT0ic3Ryb2tlOiMxODE4MTg7c3Ryb2tlLXdpZHRoOjEuMDsiIHgxPSIxMTU1IiB4Mj0iMTI1NSIgeTE9IjE2NS43MjY2IiB5Mj0iMTY1LjcyNjYiLz48dGV4dCBmaWxsPSIjMDAwMDAwIiBmb250LWZhbWlseT0ic2Fucy1zZXJpZiIgZm9udC1zaXplPSIxMyIgbGVuZ3RoQWRqdXN0PSJzcGFjaW5nIiB0ZXh0TGVuZ3RoPSI4NyIgeD0iMTE2MiIgeT0iMTYyLjEwMTYiPmdldENyb3BEYXRhKCk8L3RleHQ+PHBvbHlnb24gZmlsbD0iIzE4MTgxOCIgcG9pbnRzPSIxMTY2LDE4OS42NDA2LDExNTYsMTkzLjY0MDYsMTE2NiwxOTcuNjQwNiwxMTYyLDE5My42NDA2IiBzdHlsZT0ic3Ryb2tlOiMxODE4MTg7c3Ryb2tlLXdpZHRoOjEuMDsiLz48bGluZSBzdHlsZT0ic3Ryb2tlOiMxODE4MTg7c3Ryb2tlLXdpZHRoOjEuMDtzdHJva2UtZGFzaGFycmF5OjIuMCwyLjA7IiB4MT0iMTE2MCIgeDI9IjEyNjAiIHkxPSIxOTMuNjQwNiIgeTI9IjE5My42NDA2Ii8+PHRleHQgZmlsbD0iIzAwMDAwMCIgZm9udC1mYW1pbHk9InNhbnMtc2VyaWYiIGZvbnQtc2l6ZT0iMTMiIGxlbmd0aEFkanVzdD0ic3BhY2luZyIgdGV4dExlbmd0aD0iNjIiIHg9IjExNzIiIHk9IjE5MC4wMTU2Ij5Dcm9wIGRhdGE8L3RleHQ+PHBvbHlnb24gZmlsbD0iIzE4MTgxOCIgcG9pbnRzPSI2MDIsMjE3LjU1NDcsNTkyLDIyMS41NTQ3LDYwMiwyMjUuNTU0Nyw1OTgsMjIxLjU1NDciIHN0eWxlPSJzdHJva2U6IzE4MTgxODtzdHJva2Utd2lkdGg6MS4wOyIvPjxsaW5lIHN0eWxlPSJzdHJva2U6IzE4MTgxODtzdHJva2Utd2lkdGg6MS4wO3N0cm9rZS1kYXNoYXJyYXk6Mi4wLDIuMDsiIHgxPSI1OTYiIHgyPSIxMTQ5IiB5MT0iMjIxLjU1NDciIHkyPSIyMjEuNTU0NyIvPjx0ZXh0IGZpbGw9IiMwMDAwMDAiIGZvbnQtZmFtaWx5PSJzYW5zLXNlcmlmIiBmb250LXNpemU9IjEzIiBsZW5ndGhBZGp1c3Q9InNwYWNpbmciIHRleHRMZW5ndGg9IjExNyIgeD0iNjA4IiB5PSIyMTcuOTI5NyI+UmVjb21tZW5kZWQgY3JvcHM8L3RleHQ+PHBvbHlnb24gZmlsbD0iIzE4MTgxOCIgcG9pbnRzPSIzMywyNDUuNDY4OCwyMywyNDkuNDY4OCwzMywyNTMuNDY4OCwyOSwyNDkuNDY4OCIgc3R5bGU9InN0cm9rZTojMTgxODE4O3N0cm9rZS13aWR0aDoxLjA7Ii8+PGxpbmUgc3R5bGU9InN0cm9rZTojMTgxODE4O3N0cm9rZS13aWR0aDoxLjA7c3Ryb2tlLWRhc2hhcnJheToyLjAsMi4wOyIgeDE9IjI3IiB4Mj0iNTg1IiB5MT0iMjQ5LjQ2ODgiIHkyPSIyNDkuNDY4OCIvPjx0ZXh0IGZpbGw9IiMwMDAwMDAiIGZvbnQtZmFtaWx5PSJzYW5zLXNlcmlmIiBmb250LXNpemU9IjEzIiBsZW5ndGhBZGp1c3Q9InNwYWNpbmciIHRleHRMZW5ndGg9IjExNyIgeD0iMzkiIHk9IjI0NS44NDM4Ij5SZWNvbW1lbmRlZCBjcm9wczwvdGV4dD48IS0tU1JDPVtoTDdCUVdDbjNCcHhBcUhFQUpXX2k4VFVLbFBTbEZHM0w1akQzRjQzTUl4YXhza3hrLXFNMmh0cThCMVVldmFuTWFhQ0J1TE9QTUpucmNVQzBlU3BmbW82UjBnMWVhRm5BUzlvQnFCWDA1WldSOVFWeW1RWklzNUVKNE42WDliTE15RE5CQklZRlJNcXE2VXQ1elBTZ051VEpleVRUMDhWU3ZMZFAwbWFuRU1PaHdjcXU1ZXF2REdzWWd6MUdfSjJ3SzlIR3dFS1lMNGdhdVBoM1R2dmtNald6RjREUnhTN1hMUnlFbWVEcVl0d0FKREZtOWt3SmtQVjNwTmpQWHdBbGNMRVMyN1B5a0VVclN3QXRIakVBeXRYTlJUb082dXNWTnFERVIyVGx0QnFBLUlrdDZXRC1Hc1pNX3VOWTVhLTAwMDBdLS0+PC9nPjwvc3ZnPg==;" vertex="1" parent="1">
            <mxGeometry x="-220" y="200" width="1312" height="346" as="geometry" />
          </mxCell>
        </UserObject>
        <mxCell id="qvHnaUszY7rLW8vbcGou-2" value="&lt;b&gt;&lt;font style=&quot;font-size: 20px;&quot;&gt;Sequence Diagram&lt;/font&gt;&lt;/b&gt;" style="text;html=1;align=center;verticalAlign=middle;resizable=0;points=[];autosize=1;strokeColor=none;fillColor=none;" vertex="1" parent="1">
          <mxGeometry x="90" y="83" width="200" height="40" as="geometry" />
        </mxCell>
      </root>
    </mxGraphModel>
  </diagram>
  <diagram id="dsCUHBKmxmXi0c_bo8yh" name="Page-7">
    <mxGraphModel dx="880" dy="2718" grid="1" gridSize="10" guides="1" tooltips="1" connect="1" arrows="1" fold="1" page="1" pageScale="1" pageWidth="1654" pageHeight="2336" math="0" shadow="0">
      <root>
        <mxCell id="0" />
        <mxCell id="1" parent="0" />
        <UserObject label="" plantUmlData="{&#xa;  &quot;data&quot;: &quot;@startuml\npackage \&quot;Crop Recommendation System\&quot; {\n    [User Interface]\n    [Input Processor]\n    [Crop Recommender]\n    [Crop Dataset]\n}\n\n[User Interface] --&gt; [Input Processor]\n[Input Processor] --&gt; [Crop Recommender]\n[Crop Recommender] --&gt; [Crop Dataset]\n\n@enduml\n&quot;,&#xa;  &quot;format&quot;: &quot;svg&quot;&#xa;}" id="lYqe8VwAdvKi52f9TeLH-1">
          <mxCell style="shape=image;noLabel=1;verticalAlign=top;aspect=fixed;imageAspect=0;image=data:image/svg+xml,PD94bWwgdmVyc2lvbj0iMS4wIiBlbmNvZGluZz0idXMtYXNjaWkiIHN0YW5kYWxvbmU9Im5vIj8+PHN2ZyB4bWxucz0iaHR0cDovL3d3dy53My5vcmcvMjAwMC9zdmciIHhtbG5zOnhsaW5rPSJodHRwOi8vd3d3LnczLm9yZy8xOTk5L3hsaW5rIiBjb250ZW50U3R5bGVUeXBlPSJ0ZXh0L2NzcyIgaGVpZ2h0PSI0MjJweCIgcHJlc2VydmVBc3BlY3RSYXRpbz0ibm9uZSIgc3R5bGU9IndpZHRoOjIxNHB4O2hlaWdodDo0MjJweDtiYWNrZ3JvdW5kOiNGRkZGRkY7IiB2ZXJzaW9uPSIxLjEiIHZpZXdCb3g9IjAgMCAyMTQgNDIyIiB3aWR0aD0iMjE0cHgiIHpvb21BbmRQYW49Im1hZ25pZnkiPjxkZWZzLz48Zz48IS0tY2x1c3RlciBDcm9wIFJlY29tbWVuZGF0aW9uIFN5c3RlbS0tPjxnIGlkPSJjbHVzdGVyX0Nyb3AgUmVjb21tZW5kYXRpb24gU3lzdGVtIj48cGF0aCBkPSJNOC41LDYgTDE5NC41LDYgQTMuNzUsMy43NSAwIDAgMSAxOTcsOC41IEwyMDQsMjYuOTg0NCBMMjA0LjUsMjYuOTg0NCBBMi41LDIuNSAwIDAgMSAyMDcsMjkuNDg0NCBMMjA3LDQxMi41IEEyLjUsMi41IDAgMCAxIDIwNC41LDQxNSBMOC41LDQxNSBBMi41LDIuNSAwIDAgMSA2LDQxMi41IEw2LDguNSBBMi41LDIuNSAwIDAgMSA4LjUsNiAiIGZpbGw9Im5vbmUiIHN0eWxlPSJzdHJva2U6IzAwMDAwMDtzdHJva2Utd2lkdGg6MS41OyIvPjxsaW5lIHN0eWxlPSJzdHJva2U6IzAwMDAwMDtzdHJva2Utd2lkdGg6MS41OyIgeDE9IjYiIHgyPSIyMDQiIHkxPSIyNi45ODQ0IiB5Mj0iMjYuOTg0NCIvPjx0ZXh0IGZpbGw9IiMwMDAwMDAiIGZvbnQtZmFtaWx5PSJzYW5zLXNlcmlmIiBmb250LXNpemU9IjE0IiBmb250LXdlaWdodD0iYm9sZCIgbGVuZ3RoQWRqdXN0PSJzcGFjaW5nIiB0ZXh0TGVuZ3RoPSIxODUiIHg9IjEwIiB5PSIyMS4yMzQ0Ij5Dcm9wIFJlY29tbWVuZGF0aW9uIFN5c3RlbTwvdGV4dD48L2c+PCEtLWVudGl0eSBVc2VyIEludGVyZmFjZS0tPjxnIGlkPSJlbGVtX1VzZXIgSW50ZXJmYWNlIj48cmVjdCBmaWxsPSIjRjFGMUYxIiBoZWlnaHQ9IjQ0Ljk4NDQiIHJ4PSIyLjUiIHJ5PSIyLjUiIHN0eWxlPSJzdHJva2U6IzE4MTgxODtzdHJva2Utd2lkdGg6MC41OyIgd2lkdGg9IjEzOCIgeD0iMzciIHk9IjM5Ii8+PHJlY3QgZmlsbD0iI0YxRjFGMSIgaGVpZ2h0PSIxMCIgc3R5bGU9InN0cm9rZTojMTgxODE4O3N0cm9rZS13aWR0aDowLjU7IiB3aWR0aD0iMTUiIHg9IjE1NSIgeT0iNDQiLz48cmVjdCBmaWxsPSIjRjFGMUYxIiBoZWlnaHQ9IjIiIHN0eWxlPSJzdHJva2U6IzE4MTgxODtzdHJva2Utd2lkdGg6MC41OyIgd2lkdGg9IjQiIHg9IjE1MyIgeT0iNDYiLz48cmVjdCBmaWxsPSIjRjFGMUYxIiBoZWlnaHQ9IjIiIHN0eWxlPSJzdHJva2U6IzE4MTgxODtzdHJva2Utd2lkdGg6MC41OyIgd2lkdGg9IjQiIHg9IjE1MyIgeT0iNTAiLz48dGV4dCBmaWxsPSIjMDAwMDAwIiBmb250LWZhbWlseT0ic2Fucy1zZXJpZiIgZm9udC1zaXplPSIxNCIgbGVuZ3RoQWRqdXN0PSJzcGFjaW5nIiB0ZXh0TGVuZ3RoPSI5OCIgeD0iNTIiIHk9IjcyLjIzNDQiPlVzZXIgSW50ZXJmYWNlPC90ZXh0PjwvZz48IS0tZW50aXR5IElucHV0IFByb2Nlc3Nvci0tPjxnIGlkPSJlbGVtX0lucHV0IFByb2Nlc3NvciI+PHJlY3QgZmlsbD0iI0YxRjFGMSIgaGVpZ2h0PSI0NC45ODQ0IiByeD0iMi41IiByeT0iMi41IiBzdHlsZT0ic3Ryb2tlOiMxODE4MTg7c3Ryb2tlLXdpZHRoOjAuNTsiIHdpZHRoPSIxNDUiIHg9IjMzLjUiIHk9IjE0NCIvPjxyZWN0IGZpbGw9IiNGMUYxRjEiIGhlaWdodD0iMTAiIHN0eWxlPSJzdHJva2U6IzE4MTgxODtzdHJva2Utd2lkdGg6MC41OyIgd2lkdGg9IjE1IiB4PSIxNTguNSIgeT0iMTQ5Ii8+PHJlY3QgZmlsbD0iI0YxRjFGMSIgaGVpZ2h0PSIyIiBzdHlsZT0ic3Ryb2tlOiMxODE4MTg7c3Ryb2tlLXdpZHRoOjAuNTsiIHdpZHRoPSI0IiB4PSIxNTYuNSIgeT0iMTUxIi8+PHJlY3QgZmlsbD0iI0YxRjFGMSIgaGVpZ2h0PSIyIiBzdHlsZT0ic3Ryb2tlOiMxODE4MTg7c3Ryb2tlLXdpZHRoOjAuNTsiIHdpZHRoPSI0IiB4PSIxNTYuNSIgeT0iMTU1Ii8+PHRleHQgZmlsbD0iIzAwMDAwMCIgZm9udC1mYW1pbHk9InNhbnMtc2VyaWYiIGZvbnQtc2l6ZT0iMTQiIGxlbmd0aEFkanVzdD0ic3BhY2luZyIgdGV4dExlbmd0aD0iMTA1IiB4PSI0OC41IiB5PSIxNzcuMjM0NCI+SW5wdXQgUHJvY2Vzc29yPC90ZXh0PjwvZz48IS0tZW50aXR5IENyb3AgUmVjb21tZW5kZXItLT48ZyBpZD0iZWxlbV9Dcm9wIFJlY29tbWVuZGVyIj48cmVjdCBmaWxsPSIjRjFGMUYxIiBoZWlnaHQ9IjQ0Ljk4NDQiIHJ4PSIyLjUiIHJ5PSIyLjUiIHN0eWxlPSJzdHJva2U6IzE4MTgxODtzdHJva2Utd2lkdGg6MC41OyIgd2lkdGg9IjE1NCIgeD0iMjkiIHk9IjI0OSIvPjxyZWN0IGZpbGw9IiNGMUYxRjEiIGhlaWdodD0iMTAiIHN0eWxlPSJzdHJva2U6IzE4MTgxODtzdHJva2Utd2lkdGg6MC41OyIgd2lkdGg9IjE1IiB4PSIxNjMiIHk9IjI1NCIvPjxyZWN0IGZpbGw9IiNGMUYxRjEiIGhlaWdodD0iMiIgc3R5bGU9InN0cm9rZTojMTgxODE4O3N0cm9rZS13aWR0aDowLjU7IiB3aWR0aD0iNCIgeD0iMTYxIiB5PSIyNTYiLz48cmVjdCBmaWxsPSIjRjFGMUYxIiBoZWlnaHQ9IjIiIHN0eWxlPSJzdHJva2U6IzE4MTgxODtzdHJva2Utd2lkdGg6MC41OyIgd2lkdGg9IjQiIHg9IjE2MSIgeT0iMjYwIi8+PHRleHQgZmlsbD0iIzAwMDAwMCIgZm9udC1mYW1pbHk9InNhbnMtc2VyaWYiIGZvbnQtc2l6ZT0iMTQiIGxlbmd0aEFkanVzdD0ic3BhY2luZyIgdGV4dExlbmd0aD0iMTE0IiB4PSI0NCIgeT0iMjgyLjIzNDQiPkNyb3AgUmVjb21tZW5kZXI8L3RleHQ+PC9nPjwhLS1lbnRpdHkgQ3JvcCBEYXRhc2V0LS0+PGcgaWQ9ImVsZW1fQ3JvcCBEYXRhc2V0Ij48cmVjdCBmaWxsPSIjRjFGMUYxIiBoZWlnaHQ9IjQ0Ljk4NDQiIHJ4PSIyLjUiIHJ5PSIyLjUiIHN0eWxlPSJzdHJva2U6IzE4MTgxODtzdHJva2Utd2lkdGg6MC41OyIgd2lkdGg9IjEyNCIgeD0iNDQiIHk9IjM1NCIvPjxyZWN0IGZpbGw9IiNGMUYxRjEiIGhlaWdodD0iMTAiIHN0eWxlPSJzdHJva2U6IzE4MTgxODtzdHJva2Utd2lkdGg6MC41OyIgd2lkdGg9IjE1IiB4PSIxNDgiIHk9IjM1OSIvPjxyZWN0IGZpbGw9IiNGMUYxRjEiIGhlaWdodD0iMiIgc3R5bGU9InN0cm9rZTojMTgxODE4O3N0cm9rZS13aWR0aDowLjU7IiB3aWR0aD0iNCIgeD0iMTQ2IiB5PSIzNjEiLz48cmVjdCBmaWxsPSIjRjFGMUYxIiBoZWlnaHQ9IjIiIHN0eWxlPSJzdHJva2U6IzE4MTgxODtzdHJva2Utd2lkdGg6MC41OyIgd2lkdGg9IjQiIHg9IjE0NiIgeT0iMzY1Ii8+PHRleHQgZmlsbD0iIzAwMDAwMCIgZm9udC1mYW1pbHk9InNhbnMtc2VyaWYiIGZvbnQtc2l6ZT0iMTQiIGxlbmd0aEFkanVzdD0ic3BhY2luZyIgdGV4dExlbmd0aD0iODQiIHg9IjU5IiB5PSIzODcuMjM0NCI+Q3JvcCBEYXRhc2V0PC90ZXh0PjwvZz48IS0tbGluayBVc2VyIEludGVyZmFjZSB0byBJbnB1dCBQcm9jZXNzb3ItLT48ZyBpZD0ibGlua19Vc2VyIEludGVyZmFjZV9JbnB1dCBQcm9jZXNzb3IiPjxwYXRoIGQ9Ik0xMDYsODQuMzQgQzEwNiwxMDEuODIgMTA2LDEyMC4yMiAxMDYsMTM3LjY5ICIgZmlsbD0ibm9uZSIgaWQ9IlVzZXIgSW50ZXJmYWNlLXRvLUlucHV0IFByb2Nlc3NvciIgc3R5bGU9InN0cm9rZTojMTgxODE4O3N0cm9rZS13aWR0aDoxLjA7Ii8+PHBvbHlnb24gZmlsbD0iIzE4MTgxOCIgcG9pbnRzPSIxMDYsMTQzLjY5LDExMCwxMzQuNjksMTA2LDEzOC42OSwxMDIsMTM0LjY5LDEwNiwxNDMuNjkiIHN0eWxlPSJzdHJva2U6IzE4MTgxODtzdHJva2Utd2lkdGg6MS4wOyIvPjwvZz48IS0tbGluayBJbnB1dCBQcm9jZXNzb3IgdG8gQ3JvcCBSZWNvbW1lbmRlci0tPjxnIGlkPSJsaW5rX0lucHV0IFByb2Nlc3Nvcl9Dcm9wIFJlY29tbWVuZGVyIj48cGF0aCBkPSJNMTA2LDE4OS4zNCBDMTA2LDIwNi44MiAxMDYsMjI1LjIyIDEwNiwyNDIuNjkgIiBmaWxsPSJub25lIiBpZD0iSW5wdXQgUHJvY2Vzc29yLXRvLUNyb3AgUmVjb21tZW5kZXIiIHN0eWxlPSJzdHJva2U6IzE4MTgxODtzdHJva2Utd2lkdGg6MS4wOyIvPjxwb2x5Z29uIGZpbGw9IiMxODE4MTgiIHBvaW50cz0iMTA2LDI0OC42OSwxMTAsMjM5LjY5LDEwNiwyNDMuNjksMTAyLDIzOS42OSwxMDYsMjQ4LjY5IiBzdHlsZT0ic3Ryb2tlOiMxODE4MTg7c3Ryb2tlLXdpZHRoOjEuMDsiLz48L2c+PCEtLWxpbmsgQ3JvcCBSZWNvbW1lbmRlciB0byBDcm9wIERhdGFzZXQtLT48ZyBpZD0ibGlua19Dcm9wIFJlY29tbWVuZGVyX0Nyb3AgRGF0YXNldCI+PHBhdGggZD0iTTEwNiwyOTQuMzQgQzEwNiwzMTEuODIgMTA2LDMzMC4yMiAxMDYsMzQ3LjY5ICIgZmlsbD0ibm9uZSIgaWQ9IkNyb3AgUmVjb21tZW5kZXItdG8tQ3JvcCBEYXRhc2V0IiBzdHlsZT0ic3Ryb2tlOiMxODE4MTg7c3Ryb2tlLXdpZHRoOjEuMDsiLz48cG9seWdvbiBmaWxsPSIjMTgxODE4IiBwb2ludHM9IjEwNiwzNTMuNjksMTEwLDM0NC42OSwxMDYsMzQ4LjY5LDEwMiwzNDQuNjksMTA2LDM1My42OSIgc3R5bGU9InN0cm9rZTojMTgxODE4O3N0cm9rZS13aWR0aDoxLjA7Ii8+PC9nPjwhLS1TUkM9W0FxWENwYXZDSnJMR1NZeEFCcjA4SWF0RXB5ckRwS2o5QkNkQ3ByQzhoWW1rSVNyTEtnWmNLVzIyd0QzWXIyODVweG9JckFBcW5FSktNOFlXUHJ2MVFPYjJHNTUtU2NmblNOdUhMMUpMajVHS09QVjRhaUpZcjk5T2hiZWtCZEdwNU5IcnhSMk9ZSTQyS09UZjJ3T0dhYWdPbkcwMF0tLT48L2c+PC9zdmc+;" vertex="1" parent="1">
            <mxGeometry x="340" y="-10" width="214" height="422" as="geometry" />
          </mxCell>
        </UserObject>
        <mxCell id="lYqe8VwAdvKi52f9TeLH-2" value="&lt;b&gt;&lt;font style=&quot;font-size: 20px;&quot;&gt;Component Diagram&lt;/font&gt;&lt;/b&gt;" style="text;html=1;align=center;verticalAlign=middle;resizable=0;points=[];autosize=1;strokeColor=none;fillColor=none;" vertex="1" parent="1">
          <mxGeometry x="320" y="-110" width="220" height="40" as="geometry" />
        </mxCell>
      </root>
    </mxGraphModel>
  </diagram>
  <diagram id="WRQkyvQJ0O6PZNqG3DgI" name="Page-8">
    <mxGraphModel dx="2534" dy="2718" grid="1" gridSize="10" guides="1" tooltips="1" connect="1" arrows="1" fold="1" page="1" pageScale="1" pageWidth="1654" pageHeight="2336" math="0" shadow="0">
      <root>
        <mxCell id="0" />
        <mxCell id="1" parent="0" />
        <UserObject label="" plantUmlData="{&#xa;  &quot;data&quot;: &quot;@startuml\n\n&#39; Define classes and their relationships\nclass User {\n    + inputParameters(phosphorus: float, potassium: float, nitrogen: float, temperature: float, humidity: float, rainfall: float)\n    + receiveRecommendation(): List&lt;Crop&gt;\n}\n\nclass Crop {\n    - name: String\n    - suitability: Map&lt;String, Float&gt;\n    + getName(): String\n    + getSuitability(): Map&lt;String, Float&gt;\n}\n\nclass CropDataset {\n    - crops: List&lt;Crop&gt;\n    + getCropByName(name: String): Crop\n}\n\nclass RandomForest {\n    - trainedModel: Object\n    + recommendCrops(phosphorus: float, potassium: float, nitrogen: float, temperature: float, humidity: float, rainfall: float): List&lt;Crop&gt;\n}\n\n&#39; Define relationships between classes\nUser -- RandomForest: uses\nRandomForest -- CropDataset: uses\nRandomForest -- Crop: calls\n\n@enduml\n&quot;,&#xa;  &quot;format&quot;: &quot;svg&quot;&#xa;}" id="UA4bo20_iL3Ucatx7vG3-1">
          <mxCell style="shape=image;noLabel=1;verticalAlign=top;aspect=fixed;imageAspect=0;image=data:image/svg+xml,PD94bWwgdmVyc2lvbj0iMS4wIiBlbmNvZGluZz0idXMtYXNjaWkiIHN0YW5kYWxvbmU9Im5vIj8+PHN2ZyB4bWxucz0iaHR0cDovL3d3dy53My5vcmcvMjAwMC9zdmciIHhtbG5zOnhsaW5rPSJodHRwOi8vd3d3LnczLm9yZy8xOTk5L3hsaW5rIiBjb250ZW50U3R5bGVUeXBlPSJ0ZXh0L2NzcyIgaGVpZ2h0PSI0MjdweCIgcHJlc2VydmVBc3BlY3RSYXRpbz0ibm9uZSIgc3R5bGU9IndpZHRoOjk4NXB4O2hlaWdodDo0MjdweDtiYWNrZ3JvdW5kOiNGRkZGRkY7IiB2ZXJzaW9uPSIxLjEiIHZpZXdCb3g9IjAgMCA5ODUgNDI3IiB3aWR0aD0iOTg1cHgiIHpvb21BbmRQYW49Im1hZ25pZnkiPjxkZWZzLz48Zz48IS0tY2xhc3MgVXNlci0tPjxnIGlkPSJlbGVtX1VzZXIiPjxyZWN0IGNvZGVMaW5lPSIyIiBmaWxsPSIjRjFGMUYxIiBoZWlnaHQ9Ijc3Ljk2ODgiIGlkPSJVc2VyIiByeD0iMi41IiByeT0iMi41IiBzdHlsZT0ic3Ryb2tlOiMxODE4MTg7c3Ryb2tlLXdpZHRoOjAuNTsiIHdpZHRoPSI4OTMiIHg9IjQ2IiB5PSI3Ii8+PGVsbGlwc2UgY3g9IjQ3NC4yNSIgY3k9IjIzIiBmaWxsPSIjQUREMUIyIiByeD0iMTEiIHJ5PSIxMSIgc3R5bGU9InN0cm9rZTojMTgxODE4O3N0cm9rZS13aWR0aDoxLjA7Ii8+PHBhdGggZD0iTTQ3MS44NzUsMjcuMjUgTDQ3MS44NzUsMjkgTDQ3Ni44MTI1LDI5IEw0NzYuODEyNSwyNy4yNSBMNDcxLjg3NSwyNy4yNSBaIE00NzIuNTYyNSwyNy45Mzc1IFE0NzIuNTYyNSwyNy45Mzc1IDQ3Mi41NjI1LDE4Ljc1IEw0NzAuODEyNSwxOC43NSBRNDcwLjgxMjUsMTguNzUgNDcwLjgxMjUsMjcuOTM3NSBMNDcyLjU2MjUsMjcuOTM3NSBaIE00NzYuMTI1LDI3LjkzNzUgTDQ3Ny44NzUsMjcuOTM3NSBRNDc3Ljg3NSwyNy45Mzc1IDQ3Ny44NzUsMjUuMTI1IEw0NzYuMTI1LDI1LjEyNSBRNDc2LjEyNSwyNS4xMjUgNDc2LjEyNSwyNy45Mzc1IFogTTQ3Ni4xMjUsMTguNzUgUTQ3Ni4xMjUsMTguNzUgNDc2LjEyNSwyMS41NjI1IEw0NzcuODc1LDIxLjU2MjUgUTQ3Ny44NzUsMjEuNTYyNSA0NzcuODc1LDE4Ljc1IEw0NzYuMTI1LDE4Ljc1IFogTTQ3MS44NzUsMTkuNDM3NSBMNDc2LjgxMjUsMTkuNDM3NSBMNDc2LjgxMjUsMTcuNjg3NSBMNDcxLjg3NSwxNy42ODc1IEw0NzEuODc1LDE5LjQzNzUgWiAiIGZpbGw9IiMwMDAwMDAiLz48dGV4dCBmaWxsPSIjMDAwMDAwIiBmb250LWZhbWlseT0ic2Fucy1zZXJpZiIgZm9udC1zaXplPSIxNCIgbGVuZ3RoQWRqdXN0PSJzcGFjaW5nIiB0ZXh0TGVuZ3RoPSIyOCIgeD0iNDk0Ljc1IiB5PSIyOC43NDIyIj5Vc2VyPC90ZXh0PjxsaW5lIHN0eWxlPSJzdHJva2U6IzE4MTgxODtzdHJva2Utd2lkdGg6MC41OyIgeDE9IjQ3IiB4Mj0iOTM4IiB5MT0iMzkiIHkyPSIzOSIvPjxsaW5lIHN0eWxlPSJzdHJva2U6IzE4MTgxODtzdHJva2Utd2lkdGg6MC41OyIgeDE9IjQ3IiB4Mj0iOTM4IiB5MT0iNDciIHkyPSI0NyIvPjxlbGxpcHNlIGN4PSI1NyIgY3k9IjU5Ljk5MjIiIGZpbGw9IiM4NEJFODQiIHJ4PSIzIiByeT0iMyIgc3R5bGU9InN0cm9rZTojMDM4MDQ4O3N0cm9rZS13aWR0aDoxLjA7Ii8+PHRleHQgZmlsbD0iIzAwMDAwMCIgZm9udC1mYW1pbHk9InNhbnMtc2VyaWYiIGZvbnQtc2l6ZT0iMTQiIGxlbmd0aEFkanVzdD0ic3BhY2luZyIgdGV4dExlbmd0aD0iODY3IiB4PSI2NiIgeT0iNjQuMjM0NCI+aW5wdXRQYXJhbWV0ZXJzKHBob3NwaG9ydXM6IGZsb2F0LCBwb3Rhc3NpdW06IGZsb2F0LCBuaXRyb2dlbjogZmxvYXQsIHRlbXBlcmF0dXJlOiBmbG9hdCwgaHVtaWRpdHk6IGZsb2F0LCByYWluZmFsbDogZmxvYXQpPC90ZXh0PjxlbGxpcHNlIGN4PSI1NyIgY3k9Ijc0Ljk3NjYiIGZpbGw9IiM4NEJFODQiIHJ4PSIzIiByeT0iMyIgc3R5bGU9InN0cm9rZTojMDM4MDQ4O3N0cm9rZS13aWR0aDoxLjA7Ii8+PHRleHQgZmlsbD0iIzAwMDAwMCIgZm9udC1mYW1pbHk9InNhbnMtc2VyaWYiIGZvbnQtc2l6ZT0iMTQiIGxlbmd0aEFkanVzdD0ic3BhY2luZyIgdGV4dExlbmd0aD0iMjQ5IiB4PSI2NiIgeT0iNzkuMjE4OCI+cmVjZWl2ZVJlY29tbWVuZGF0aW9uKCk6IExpc3QmbHQ7Q3JvcCZndDs8L3RleHQ+PC9nPjwhLS1jbGFzcyBDcm9wLS0+PGcgaWQ9ImVsZW1fQ3JvcCI+PHJlY3QgY29kZUxpbmU9IjciIGZpbGw9IiNGMUYxRjEiIGhlaWdodD0iMTA3LjkzNzUiIGlkPSJDcm9wIiByeD0iMi41IiByeT0iMi41IiBzdHlsZT0ic3Ryb2tlOiMxODE4MTg7c3Ryb2tlLXdpZHRoOjAuNTsiIHdpZHRoPSIyODAiIHg9IjE5OS41IiB5PSIzMTMiLz48ZWxsaXBzZSBjeD0iMzIxLjI1IiBjeT0iMzI5IiBmaWxsPSIjQUREMUIyIiByeD0iMTEiIHJ5PSIxMSIgc3R5bGU9InN0cm9rZTojMTgxODE4O3N0cm9rZS13aWR0aDoxLjA7Ii8+PHBhdGggZD0iTTMxOC44NzUsMzMzLjI1IEwzMTguODc1LDMzNSBMMzIzLjgxMjUsMzM1IEwzMjMuODEyNSwzMzMuMjUgTDMxOC44NzUsMzMzLjI1IFogTTMxOS41NjI1LDMzMy45Mzc1IFEzMTkuNTYyNSwzMzMuOTM3NSAzMTkuNTYyNSwzMjQuNzUgTDMxNy44MTI1LDMyNC43NSBRMzE3LjgxMjUsMzI0Ljc1IDMxNy44MTI1LDMzMy45Mzc1IEwzMTkuNTYyNSwzMzMuOTM3NSBaIE0zMjMuMTI1LDMzMy45Mzc1IEwzMjQuODc1LDMzMy45Mzc1IFEzMjQuODc1LDMzMy45Mzc1IDMyNC44NzUsMzMxLjEyNSBMMzIzLjEyNSwzMzEuMTI1IFEzMjMuMTI1LDMzMS4xMjUgMzIzLjEyNSwzMzMuOTM3NSBaIE0zMjMuMTI1LDMyNC43NSBRMzIzLjEyNSwzMjQuNzUgMzIzLjEyNSwzMjcuNTYyNSBMMzI0Ljg3NSwzMjcuNTYyNSBRMzI0Ljg3NSwzMjcuNTYyNSAzMjQuODc1LDMyNC43NSBMMzIzLjEyNSwzMjQuNzUgWiBNMzE4Ljg3NSwzMjUuNDM3NSBMMzIzLjgxMjUsMzI1LjQzNzUgTDMyMy44MTI1LDMyMy42ODc1IEwzMTguODc1LDMyMy42ODc1IEwzMTguODc1LDMyNS40Mzc1IFogIiBmaWxsPSIjMDAwMDAwIi8+PHRleHQgZmlsbD0iIzAwMDAwMCIgZm9udC1mYW1pbHk9InNhbnMtc2VyaWYiIGZvbnQtc2l6ZT0iMTQiIGxlbmd0aEFkanVzdD0ic3BhY2luZyIgdGV4dExlbmd0aD0iMjgiIHg9IjM0MS43NSIgeT0iMzM0Ljc0MjIiPkNyb3A8L3RleHQ+PGxpbmUgc3R5bGU9InN0cm9rZTojMTgxODE4O3N0cm9rZS13aWR0aDowLjU7IiB4MT0iMjAwLjUiIHgyPSI0NzguNSIgeTE9IjM0NSIgeTI9IjM0NSIvPjxyZWN0IGZpbGw9Im5vbmUiIGhlaWdodD0iNiIgc3R5bGU9InN0cm9rZTojQzgyOTMwO3N0cm9rZS13aWR0aDoxLjA7IiB3aWR0aD0iNiIgeD0iMjA3LjUiIHk9IjM1NC45OTIyIi8+PHRleHQgZmlsbD0iIzAwMDAwMCIgZm9udC1mYW1pbHk9InNhbnMtc2VyaWYiIGZvbnQtc2l6ZT0iMTQiIGxlbmd0aEFkanVzdD0ic3BhY2luZyIgdGV4dExlbmd0aD0iODUiIHg9IjIxOS41IiB5PSIzNjIuMjM0NCI+bmFtZTogU3RyaW5nPC90ZXh0PjxyZWN0IGZpbGw9Im5vbmUiIGhlaWdodD0iNiIgc3R5bGU9InN0cm9rZTojQzgyOTMwO3N0cm9rZS13aWR0aDoxLjA7IiB3aWR0aD0iNiIgeD0iMjA3LjUiIHk9IjM2OS45NzY2Ii8+PHRleHQgZmlsbD0iIzAwMDAwMCIgZm9udC1mYW1pbHk9InNhbnMtc2VyaWYiIGZvbnQtc2l6ZT0iMTQiIGxlbmd0aEFkanVzdD0ic3BhY2luZyIgdGV4dExlbmd0aD0iMjE3IiB4PSIyMTkuNSIgeT0iMzc3LjIxODgiPnN1aXRhYmlsaXR5OiBNYXAmbHQ7U3RyaW5nLCBGbG9hdCZndDs8L3RleHQ+PGxpbmUgc3R5bGU9InN0cm9rZTojMTgxODE4O3N0cm9rZS13aWR0aDowLjU7IiB4MT0iMjAwLjUiIHgyPSI0NzguNSIgeTE9IjM4Mi45Njg4IiB5Mj0iMzgyLjk2ODgiLz48ZWxsaXBzZSBjeD0iMjEwLjUiIGN5PSIzOTUuOTYwOSIgZmlsbD0iIzg0QkU4NCIgcng9IjMiIHJ5PSIzIiBzdHlsZT0ic3Ryb2tlOiMwMzgwNDg7c3Ryb2tlLXdpZHRoOjEuMDsiLz48dGV4dCBmaWxsPSIjMDAwMDAwIiBmb250LWZhbWlseT0ic2Fucy1zZXJpZiIgZm9udC1zaXplPSIxNCIgbGVuZ3RoQWRqdXN0PSJzcGFjaW5nIiB0ZXh0TGVuZ3RoPSIxMjIiIHg9IjIxOS41IiB5PSI0MDAuMjAzMSI+Z2V0TmFtZSgpOiBTdHJpbmc8L3RleHQ+PGVsbGlwc2UgY3g9IjIxMC41IiBjeT0iNDEwLjk0NTMiIGZpbGw9IiM4NEJFODQiIHJ4PSIzIiByeT0iMyIgc3R5bGU9InN0cm9rZTojMDM4MDQ4O3N0cm9rZS13aWR0aDoxLjA7Ii8+PHRleHQgZmlsbD0iIzAwMDAwMCIgZm9udC1mYW1pbHk9InNhbnMtc2VyaWYiIGZvbnQtc2l6ZT0iMTQiIGxlbmd0aEFkanVzdD0ic3BhY2luZyIgdGV4dExlbmd0aD0iMjU0IiB4PSIyMTkuNSIgeT0iNDE1LjE4NzUiPmdldFN1aXRhYmlsaXR5KCk6IE1hcCZsdDtTdHJpbmcsIEZsb2F0Jmd0OzwvdGV4dD48L2c+PCEtLWNsYXNzIENyb3BEYXRhc2V0LS0+PGcgaWQ9ImVsZW1fQ3JvcERhdGFzZXQiPjxyZWN0IGNvZGVMaW5lPSIxNCIgZmlsbD0iI0YxRjFGMSIgaGVpZ2h0PSI3Ny45Njg4IiBpZD0iQ3JvcERhdGFzZXQiIHJ4PSIyLjUiIHJ5PSIyLjUiIHN0eWxlPSJzdHJva2U6IzE4MTgxODtzdHJva2Utd2lkdGg6MC41OyIgd2lkdGg9IjI2MSIgeD0iNTE1IiB5PSIzMjgiLz48ZWxsaXBzZSBjeD0iNjAyLjc1IiBjeT0iMzQ0IiBmaWxsPSIjQUREMUIyIiByeD0iMTEiIHJ5PSIxMSIgc3R5bGU9InN0cm9rZTojMTgxODE4O3N0cm9rZS13aWR0aDoxLjA7Ii8+PHBhdGggZD0iTTYwMC4zNzUsMzQ4LjI1IEw2MDAuMzc1LDM1MCBMNjA1LjMxMjUsMzUwIEw2MDUuMzEyNSwzNDguMjUgTDYwMC4zNzUsMzQ4LjI1IFogTTYwMS4wNjI1LDM0OC45Mzc1IFE2MDEuMDYyNSwzNDguOTM3NSA2MDEuMDYyNSwzMzkuNzUgTDU5OS4zMTI1LDMzOS43NSBRNTk5LjMxMjUsMzM5Ljc1IDU5OS4zMTI1LDM0OC45Mzc1IEw2MDEuMDYyNSwzNDguOTM3NSBaIE02MDQuNjI1LDM0OC45Mzc1IEw2MDYuMzc1LDM0OC45Mzc1IFE2MDYuMzc1LDM0OC45Mzc1IDYwNi4zNzUsMzQ2LjEyNSBMNjA0LjYyNSwzNDYuMTI1IFE2MDQuNjI1LDM0Ni4xMjUgNjA0LjYyNSwzNDguOTM3NSBaIE02MDQuNjI1LDMzOS43NSBRNjA0LjYyNSwzMzkuNzUgNjA0LjYyNSwzNDIuNTYyNSBMNjA2LjM3NSwzNDIuNTYyNSBRNjA2LjM3NSwzNDIuNTYyNSA2MDYuMzc1LDMzOS43NSBMNjA0LjYyNSwzMzkuNzUgWiBNNjAwLjM3NSwzNDAuNDM3NSBMNjA1LjMxMjUsMzQwLjQzNzUgTDYwNS4zMTI1LDMzOC42ODc1IEw2MDAuMzc1LDMzOC42ODc1IEw2MDAuMzc1LDM0MC40Mzc1IFogIiBmaWxsPSIjMDAwMDAwIi8+PHRleHQgZmlsbD0iIzAwMDAwMCIgZm9udC1mYW1pbHk9InNhbnMtc2VyaWYiIGZvbnQtc2l6ZT0iMTQiIGxlbmd0aEFkanVzdD0ic3BhY2luZyIgdGV4dExlbmd0aD0iNzciIHg9IjYyMy4yNSIgeT0iMzQ5Ljc0MjIiPkNyb3BEYXRhc2V0PC90ZXh0PjxsaW5lIHN0eWxlPSJzdHJva2U6IzE4MTgxODtzdHJva2Utd2lkdGg6MC41OyIgeDE9IjUxNiIgeDI9Ijc3NSIgeTE9IjM2MCIgeTI9IjM2MCIvPjxyZWN0IGZpbGw9Im5vbmUiIGhlaWdodD0iNiIgc3R5bGU9InN0cm9rZTojQzgyOTMwO3N0cm9rZS13aWR0aDoxLjA7IiB3aWR0aD0iNiIgeD0iNTIzIiB5PSIzNjkuOTkyMiIvPjx0ZXh0IGZpbGw9IiMwMDAwMDAiIGZvbnQtZmFtaWx5PSJzYW5zLXNlcmlmIiBmb250LXNpemU9IjE0IiBsZW5ndGhBZGp1c3Q9InNwYWNpbmciIHRleHRMZW5ndGg9IjExOSIgeD0iNTM1IiB5PSIzNzcuMjM0NCI+Y3JvcHM6IExpc3QmbHQ7Q3JvcCZndDs8L3RleHQ+PGxpbmUgc3R5bGU9InN0cm9rZTojMTgxODE4O3N0cm9rZS13aWR0aDowLjU7IiB4MT0iNTE2IiB4Mj0iNzc1IiB5MT0iMzgyLjk4NDQiIHkyPSIzODIuOTg0NCIvPjxlbGxpcHNlIGN4PSI1MjYiIGN5PSIzOTUuOTc2NiIgZmlsbD0iIzg0QkU4NCIgcng9IjMiIHJ5PSIzIiBzdHlsZT0ic3Ryb2tlOiMwMzgwNDg7c3Ryb2tlLXdpZHRoOjEuMDsiLz48dGV4dCBmaWxsPSIjMDAwMDAwIiBmb250LWZhbWlseT0ic2Fucy1zZXJpZiIgZm9udC1zaXplPSIxNCIgbGVuZ3RoQWRqdXN0PSJzcGFjaW5nIiB0ZXh0TGVuZ3RoPSIyMzUiIHg9IjUzNSIgeT0iNDAwLjIxODgiPmdldENyb3BCeU5hbWUobmFtZTogU3RyaW5nKTogQ3JvcDwvdGV4dD48L2c+PCEtLWNsYXNzIFJhbmRvbUZvcmVzdC0tPjxnIGlkPSJlbGVtX1JhbmRvbUZvcmVzdCI+PHJlY3QgY29kZUxpbmU9IjE5IiBmaWxsPSIjRjFGMUYxIiBoZWlnaHQ9Ijc3Ljk2ODgiIGlkPSJSYW5kb21Gb3Jlc3QiIHJ4PSIyLjUiIHJ5PSIyLjUiIHN0eWxlPSJzdHJva2U6IzE4MTgxODtzdHJva2Utd2lkdGg6MC41OyIgd2lkdGg9Ijk3MSIgeD0iNyIgeT0iMTYwIi8+PGVsbGlwc2UgY3g9IjQ0NS43NSIgY3k9IjE3NiIgZmlsbD0iI0FERDFCMiIgcng9IjExIiByeT0iMTEiIHN0eWxlPSJzdHJva2U6IzE4MTgxODtzdHJva2Utd2lkdGg6MS4wOyIvPjxwYXRoIGQ9Ik00NDMuMzc1LDE4MC4yNSBMNDQzLjM3NSwxODIgTDQ0OC4zMTI1LDE4MiBMNDQ4LjMxMjUsMTgwLjI1IEw0NDMuMzc1LDE4MC4yNSBaIE00NDQuMDYyNSwxODAuOTM3NSBRNDQ0LjA2MjUsMTgwLjkzNzUgNDQ0LjA2MjUsMTcxLjc1IEw0NDIuMzEyNSwxNzEuNzUgUTQ0Mi4zMTI1LDE3MS43NSA0NDIuMzEyNSwxODAuOTM3NSBMNDQ0LjA2MjUsMTgwLjkzNzUgWiBNNDQ3LjYyNSwxODAuOTM3NSBMNDQ5LjM3NSwxODAuOTM3NSBRNDQ5LjM3NSwxODAuOTM3NSA0NDkuMzc1LDE3OC4xMjUgTDQ0Ny42MjUsMTc4LjEyNSBRNDQ3LjYyNSwxNzguMTI1IDQ0Ny42MjUsMTgwLjkzNzUgWiBNNDQ3LjYyNSwxNzEuNzUgUTQ0Ny42MjUsMTcxLjc1IDQ0Ny42MjUsMTc0LjU2MjUgTDQ0OS4zNzUsMTc0LjU2MjUgUTQ0OS4zNzUsMTc0LjU2MjUgNDQ5LjM3NSwxNzEuNzUgTDQ0Ny42MjUsMTcxLjc1IFogTTQ0My4zNzUsMTcyLjQzNzUgTDQ0OC4zMTI1LDE3Mi40Mzc1IEw0NDguMzEyNSwxNzAuNjg3NSBMNDQzLjM3NSwxNzAuNjg3NSBMNDQzLjM3NSwxNzIuNDM3NSBaICIgZmlsbD0iIzAwMDAwMCIvPjx0ZXh0IGZpbGw9IiMwMDAwMDAiIGZvbnQtZmFtaWx5PSJzYW5zLXNlcmlmIiBmb250LXNpemU9IjE0IiBsZW5ndGhBZGp1c3Q9InNwYWNpbmciIHRleHRMZW5ndGg9Ijg1IiB4PSI0NjYuMjUiIHk9IjE4MS43NDIyIj5SYW5kb21Gb3Jlc3Q8L3RleHQ+PGxpbmUgc3R5bGU9InN0cm9rZTojMTgxODE4O3N0cm9rZS13aWR0aDowLjU7IiB4MT0iOCIgeDI9Ijk3NyIgeTE9IjE5MiIgeTI9IjE5MiIvPjxyZWN0IGZpbGw9Im5vbmUiIGhlaWdodD0iNiIgc3R5bGU9InN0cm9rZTojQzgyOTMwO3N0cm9rZS13aWR0aDoxLjA7IiB3aWR0aD0iNiIgeD0iMTUiIHk9IjIwMS45OTIyIi8+PHRleHQgZmlsbD0iIzAwMDAwMCIgZm9udC1mYW1pbHk9InNhbnMtc2VyaWYiIGZvbnQtc2l6ZT0iMTQiIGxlbmd0aEFkanVzdD0ic3BhY2luZyIgdGV4dExlbmd0aD0iMTQwIiB4PSIyNyIgeT0iMjA5LjIzNDQiPnRyYWluZWRNb2RlbDogT2JqZWN0PC90ZXh0PjxsaW5lIHN0eWxlPSJzdHJva2U6IzE4MTgxODtzdHJva2Utd2lkdGg6MC41OyIgeDE9IjgiIHgyPSI5NzciIHkxPSIyMTQuOTg0NCIgeTI9IjIxNC45ODQ0Ii8+PGVsbGlwc2UgY3g9IjE4IiBjeT0iMjI3Ljk3NjYiIGZpbGw9IiM4NEJFODQiIHJ4PSIzIiByeT0iMyIgc3R5bGU9InN0cm9rZTojMDM4MDQ4O3N0cm9rZS13aWR0aDoxLjA7Ii8+PHRleHQgZmlsbD0iIzAwMDAwMCIgZm9udC1mYW1pbHk9InNhbnMtc2VyaWYiIGZvbnQtc2l6ZT0iMTQiIGxlbmd0aEFkanVzdD0ic3BhY2luZyIgdGV4dExlbmd0aD0iOTQ1IiB4PSIyNyIgeT0iMjMyLjIxODgiPnJlY29tbWVuZENyb3BzKHBob3NwaG9ydXM6IGZsb2F0LCBwb3Rhc3NpdW06IGZsb2F0LCBuaXRyb2dlbjogZmxvYXQsIHRlbXBlcmF0dXJlOiBmbG9hdCwgaHVtaWRpdHk6IGZsb2F0LCByYWluZmFsbDogZmxvYXQpOiBMaXN0Jmx0O0Nyb3AmZ3Q7PC90ZXh0PjwvZz48IS0tbGluayBVc2VyIHRvIFJhbmRvbUZvcmVzdC0tPjxnIGlkPSJsaW5rX1VzZXJfUmFuZG9tRm9yZXN0Ij48cGF0aCBjb2RlTGluZT0iMjUiIGQ9Ik00OTIuNSw4NS4xIEM0OTIuNSwxMDcuOTkgNDkyLjUsMTM3LjAyIDQ5Mi41LDE1OS45MSAiIGZpbGw9Im5vbmUiIGlkPSJVc2VyLVJhbmRvbUZvcmVzdCIgc3R5bGU9InN0cm9rZTojMTgxODE4O3N0cm9rZS13aWR0aDoxLjA7Ii8+PHRleHQgZmlsbD0iIzAwMDAwMCIgZm9udC1mYW1pbHk9InNhbnMtc2VyaWYiIGZvbnQtc2l6ZT0iMTMiIGxlbmd0aEFkanVzdD0ic3BhY2luZyIgdGV4dExlbmd0aD0iMjgiIHg9IjQ5My41IiB5PSIxMjguMjg5MSI+dXNlczwvdGV4dD48L2c+PCEtLWxpbmsgUmFuZG9tRm9yZXN0IHRvIENyb3BEYXRhc2V0LS0+PGcgaWQ9ImxpbmtfUmFuZG9tRm9yZXN0X0Nyb3BEYXRhc2V0Ij48cGF0aCBjb2RlTGluZT0iMjYiIGQ9Ik01MjcuNiwyMzguMDggQzU1Mi4zOSwyNjQuOTggNTg1LjQ4LDMwMC44OCA2MTAuMywzMjcuODEgIiBmaWxsPSJub25lIiBpZD0iUmFuZG9tRm9yZXN0LUNyb3BEYXRhc2V0IiBzdHlsZT0ic3Ryb2tlOiMxODE4MTg7c3Ryb2tlLXdpZHRoOjEuMDsiLz48dGV4dCBmaWxsPSIjMDAwMDAwIiBmb250LWZhbWlseT0ic2Fucy1zZXJpZiIgZm9udC1zaXplPSIxMyIgbGVuZ3RoQWRqdXN0PSJzcGFjaW5nIiB0ZXh0TGVuZ3RoPSIyOCIgeD0iNTcwLjUiIHk9IjI4MS4yODkxIj51c2VzPC90ZXh0PjwvZz48IS0tbGluayBSYW5kb21Gb3Jlc3QgdG8gQ3JvcC0tPjxnIGlkPSJsaW5rX1JhbmRvbUZvcmVzdF9Dcm9wIj48cGF0aCBjb2RlTGluZT0iMjciIGQ9Ik00NTcuNCwyMzguMDggQzQzNi45MywyNjAuMjkgNDEwLjgsMjg4LjY0IDM4OC4zNSwzMTMgIiBmaWxsPSJub25lIiBpZD0iUmFuZG9tRm9yZXN0LUNyb3AiIHN0eWxlPSJzdHJva2U6IzE4MTgxODtzdHJva2Utd2lkdGg6MS4wOyIvPjx0ZXh0IGZpbGw9IiMwMDAwMDAiIGZvbnQtZmFtaWx5PSJzYW5zLXNlcmlmIiBmb250LXNpemU9IjEzIiBsZW5ndGhBZGp1c3Q9InNwYWNpbmciIHRleHRMZW5ndGg9IjMzIiB4PSI0MzEuNSIgeT0iMjgxLjI4OTEiPmNhbGxzPC90ZXh0PjwvZz48IS0tU1JDPVtsTEIxUmk4bTNCdHRBdG0zREZZMTJkN080QVVuSlExekc2V0R6VEdjYVVyaUdqRi1WS2FmQlBzYzdMVWZYcHA3eHhxeVVtOWhGOTk1QTZlWldXQjZiZzBMNFdEWlJQSVNiT2d5UDZxVE5XS1BGWkU4dG5zR3pLNVYzOWk2NUxjY2xkOElWbXdJbXg1c0hrVldkU09zMmFzRk01OXM5eEd6ZURYdVBBRTFpU1VncTUxOVVrdTFEY0lGZmd1eE9ET3ZPMm9HdGQ2N1hNaVFqNk5oVHBoQnVQNTRibV9pXzJoeG9aaGx3VFh2TnUyRGZkRk9BdkN6VFAwNEtkRVdrak5UNmgteUxFVW1JUEFoSmxBNC1YSHhheVhEVHVsbDF1OUtfZUxZdjZMak9aUWVsUUtZT1pBb3RaRWR1X3N2clJxcjdhTElQUTNUblVjdlBrQ09QVTNMNTF3TU1yVFlwRV92eThRNTNsYlRXYWlxX3BoMGRvRVFORlRtajdMbUdGcjBqRFZqcERoek1vbjYzeXFYZkRCZXhWN0FKU0hfdENZWFlBeGE2bTAwXS0tPjwvZz48L3N2Zz4=;" vertex="1" parent="1">
            <mxGeometry x="-40" y="-10" width="985" height="427" as="geometry" />
          </mxCell>
        </UserObject>
        <mxCell id="UA4bo20_iL3Ucatx7vG3-2" value="&lt;b&gt;&lt;font style=&quot;font-size: 19px;&quot;&gt;Class Diagram&lt;/font&gt;&lt;/b&gt;" style="text;html=1;align=center;verticalAlign=middle;resizable=0;points=[];autosize=1;strokeColor=none;fillColor=none;" vertex="1" parent="1">
          <mxGeometry x="330" y="-87" width="160" height="40" as="geometry" />
        </mxCell>
      </root>
    </mxGraphModel>
  </diagram>
  <diagram id="Pz1-HkwPYsvlI0e6hQp2" name="Page-9">
    <mxGraphModel dx="880" dy="382" grid="1" gridSize="10" guides="1" tooltips="1" connect="1" arrows="1" fold="1" page="1" pageScale="1" pageWidth="1654" pageHeight="2336" math="0" shadow="0">
      <root>
        <mxCell id="0" />
        <mxCell id="1" parent="0" />
        <mxCell id="4HGMKQS5Kt_ExQmtjCWB-1" value="&lt;b style=&quot;font-size: 17px;&quot;&gt;level 2 DFD:&lt;/b&gt;" style="text;html=1;align=center;verticalAlign=middle;resizable=0;points=[];autosize=1;strokeColor=none;fillColor=none;fontSize=17;" vertex="1" parent="1">
          <mxGeometry x="90" y="178" width="120" height="30" as="geometry" />
        </mxCell>
        <UserObject label="" plantUmlData="{&quot;data&quot;:&quot;@startuml\n\n&#39; Define external entities\nactor User as User\ndatabase \&quot;Crop Dataset\&quot; as CropDataset\n\n&#39; Define processes\nrectangle \&quot;Crop Recommendation System\&quot; {\n    rectangle \&quot;Input Processing\&quot; as InputProcess {\n        User --&gt; InputProcess : P,N,K,Temperature, Humidity, Rainfall\n    }\n    \n    rectangle \&quot;Parameter Validation\&quot; as ParamValidation {\n        InputProcess --&gt; ParamValidation : Processed Parameters\n    }\n    \n    rectangle \&quot;Crop Selection\&quot; as CropSelection {\n        ParamValidation --&gt; CropSelection : Valid Parameters\n        CropDataset --&gt; CropSelection : Crop Data\n        CropSelection --&gt; User : Recommended Crops\n    }\n    \n    rectangle \&quot;Logging\&quot; as Logging {\n        ParamValidation --&gt; Logging : Log Parameters\n        CropSelection --&gt; Logging : Log Recommendations\n    }\n}\n\n@enduml\n&quot;,&quot;format&quot;:&quot;svg&quot;}" id="4HGMKQS5Kt_ExQmtjCWB-3">
          <mxCell style="shape=image;noLabel=1;verticalAlign=top;aspect=fixed;imageAspect=0;image=data:image/svg+xml,PD94bWwgdmVyc2lvbj0iMS4wIiBlbmNvZGluZz0idXMtYXNjaWkiIHN0YW5kYWxvbmU9Im5vIj8+PHN2ZyB4bWxucz0iaHR0cDovL3d3dy53My5vcmcvMjAwMC9zdmciIHhtbG5zOnhsaW5rPSJodHRwOi8vd3d3LnczLm9yZy8xOTk5L3hsaW5rIiBjb250ZW50U3R5bGVUeXBlPSJ0ZXh0L2NzcyIgaGVpZ2h0PSI0NjBweCIgcHJlc2VydmVBc3BlY3RSYXRpbz0ibm9uZSIgc3R5bGU9IndpZHRoOjcyOXB4O2hlaWdodDo0NjBweDtiYWNrZ3JvdW5kOiNGRkZGRkY7IiB2ZXJzaW9uPSIxLjEiIHZpZXdCb3g9IjAgMCA3MjkgNDYwIiB3aWR0aD0iNzI5cHgiIHpvb21BbmRQYW49Im1hZ25pZnkiPjxkZWZzLz48Zz48IS0tY2x1c3RlciBDcm9wIFJlY29tbWVuZGF0aW9uIFN5c3RlbS0tPjxnIGlkPSJjbHVzdGVyX0Nyb3AgUmVjb21tZW5kYXRpb24gU3lzdGVtIj48cmVjdCBmaWxsPSJub25lIiBoZWlnaHQ9IjQ0MyIgcng9IjIuNSIgcnk9IjIuNSIgc3R5bGU9InN0cm9rZTojMTgxODE4O3N0cm9rZS13aWR0aDoxLjA7IiB3aWR0aD0iMzE4IiB4PSI3IiB5PSI3Ii8+PHRleHQgZmlsbD0iIzAwMDAwMCIgZm9udC1mYW1pbHk9InNhbnMtc2VyaWYiIGZvbnQtc2l6ZT0iMTQiIGZvbnQtd2VpZ2h0PSJib2xkIiBsZW5ndGhBZGp1c3Q9InNwYWNpbmciIHRleHRMZW5ndGg9IjE4NSIgeD0iNzMuNSIgeT0iMjIuMjM0NCI+Q3JvcCBSZWNvbW1lbmRhdGlvbiBTeXN0ZW08L3RleHQ+PC9nPjwhLS1lbnRpdHkgSW5wdXRQcm9jZXNzLS0+PGcgaWQ9ImVsZW1fSW5wdXRQcm9jZXNzIj48cmVjdCBmaWxsPSIjRjFGMUYxIiBoZWlnaHQ9IjM0Ljk4NDQiIHJ4PSIyLjUiIHJ5PSIyLjUiIHN0eWxlPSJzdHJva2U6IzE4MTgxODtzdHJva2Utd2lkdGg6MC41OyIgd2lkdGg9IjEzMiIgeD0iMTQwIiB5PSI0MCIvPjx0ZXh0IGZpbGw9IiMwMDAwMDAiIGZvbnQtZmFtaWx5PSJzYW5zLXNlcmlmIiBmb250LXNpemU9IjE0IiBsZW5ndGhBZGp1c3Q9InNwYWNpbmciIHRleHRMZW5ndGg9IjExMiIgeD0iMTUwIiB5PSI2My4yMzQ0Ij5JbnB1dCBQcm9jZXNzaW5nPC90ZXh0PjwvZz48IS0tZW50aXR5IFBhcmFtVmFsaWRhdGlvbi0tPjxnIGlkPSJlbGVtX1BhcmFtVmFsaWRhdGlvbiI+PHJlY3QgZmlsbD0iI0YxRjFGMSIgaGVpZ2h0PSIzNC45ODQ0IiByeD0iMi41IiByeT0iMi41IiBzdHlsZT0ic3Ryb2tlOiMxODE4MTg7c3Ryb2tlLXdpZHRoOjAuNTsiIHdpZHRoPSIxNjEiIHg9Ijg4LjUiIHk9IjE1NC41Ii8+PHRleHQgZmlsbD0iIzAwMDAwMCIgZm9udC1mYW1pbHk9InNhbnMtc2VyaWYiIGZvbnQtc2l6ZT0iMTQiIGxlbmd0aEFkanVzdD0ic3BhY2luZyIgdGV4dExlbmd0aD0iMTQxIiB4PSI5OC41IiB5PSIxNzcuNzM0NCI+UGFyYW1ldGVyIFZhbGlkYXRpb248L3RleHQ+PC9nPjwhLS1lbnRpdHkgQ3JvcFNlbGVjdGlvbi0tPjxnIGlkPSJlbGVtX0Nyb3BTZWxlY3Rpb24iPjxyZWN0IGZpbGw9IiNGMUYxRjEiIGhlaWdodD0iMzQuOTg0NCIgcng9IjIuNSIgcnk9IjIuNSIgc3R5bGU9InN0cm9rZTojMTgxODE4O3N0cm9rZS13aWR0aDowLjU7IiB3aWR0aD0iMTE4IiB4PSIxOTEiIHk9IjI2OSIvPjx0ZXh0IGZpbGw9IiMwMDAwMDAiIGZvbnQtZmFtaWx5PSJzYW5zLXNlcmlmIiBmb250LXNpemU9IjE0IiBsZW5ndGhBZGp1c3Q9InNwYWNpbmciIHRleHRMZW5ndGg9Ijk4IiB4PSIyMDEiIHk9IjI5Mi4yMzQ0Ij5Dcm9wIFNlbGVjdGlvbjwvdGV4dD48L2c+PCEtLWVudGl0eSBMb2dnaW5nLS0+PGcgaWQ9ImVsZW1fTG9nZ2luZyI+PHJlY3QgZmlsbD0iI0YxRjFGMSIgaGVpZ2h0PSIzNC45ODQ0IiByeD0iMi41IiByeT0iMi41IiBzdHlsZT0ic3Ryb2tlOiMxODE4MTg7c3Ryb2tlLXdpZHRoOjAuNTsiIHdpZHRoPSI2OSIgeD0iNjMuNSIgeT0iMzk5Ii8+PHRleHQgZmlsbD0iIzAwMDAwMCIgZm9udC1mYW1pbHk9InNhbnMtc2VyaWYiIGZvbnQtc2l6ZT0iMTQiIGxlbmd0aEFkanVzdD0ic3BhY2luZyIgdGV4dExlbmd0aD0iNDkiIHg9IjczLjUiIHk9IjQyMi4yMzQ0Ij5Mb2dnaW5nPC90ZXh0PjwvZz48IS0tZW50aXR5IFVzZXItLT48ZyBpZD0iZWxlbV9Vc2VyIj48ZWxsaXBzZSBjeD0iMzY2IiBjeT0iMzg3LjUiIGZpbGw9IiNGMUYxRjEiIHJ4PSI4IiByeT0iOCIgc3R5bGU9InN0cm9rZTojMTgxODE4O3N0cm9rZS13aWR0aDowLjU7Ii8+PHBhdGggZD0iTTM2NiwzOTUuNSBMMzY2LDQyMi41IE0zNTMsNDAzLjUgTDM3OSw0MDMuNSBNMzY2LDQyMi41IEwzNTMsNDM3LjUgTTM2Niw0MjIuNSBMMzc5LDQzNy41ICIgZmlsbD0ibm9uZSIgc3R5bGU9InN0cm9rZTojMTgxODE4O3N0cm9rZS13aWR0aDowLjU7Ii8+PHRleHQgZmlsbD0iIzAwMDAwMCIgZm9udC1mYW1pbHk9InNhbnMtc2VyaWYiIGZvbnQtc2l6ZT0iMTQiIGxlbmd0aEFkanVzdD0ic3BhY2luZyIgdGV4dExlbmd0aD0iMjgiIHg9IjM1MiIgeT0iNDUyLjIzNDQiPlVzZXI8L3RleHQ+PC9nPjwhLS1lbnRpdHkgQ3JvcERhdGFzZXQtLT48ZyBpZD0iZWxlbV9Dcm9wRGF0YXNldCI+PHBhdGggZD0iTTM0MSwxNjAgQzM0MSwxNTAgMzkzLDE1MCAzOTMsMTUwIEMzOTMsMTUwIDQ0NSwxNTAgNDQ1LDE2MCBMNDQ1LDE4My45ODQ0IEM0NDUsMTkzLjk4NDQgMzkzLDE5My45ODQ0IDM5MywxOTMuOTg0NCBDMzkzLDE5My45ODQ0IDM0MSwxOTMuOTg0NCAzNDEsMTgzLjk4NDQgTDM0MSwxNjAgIiBmaWxsPSIjRjFGMUYxIiBzdHlsZT0ic3Ryb2tlOiMxODE4MTg7c3Ryb2tlLXdpZHRoOjAuNTsiLz48cGF0aCBkPSJNMzQxLDE2MCBDMzQxLDE3MCAzOTMsMTcwIDM5MywxNzAgQzM5MywxNzAgNDQ1LDE3MCA0NDUsMTYwICIgZmlsbD0ibm9uZSIgc3R5bGU9InN0cm9rZTojMTgxODE4O3N0cm9rZS13aWR0aDowLjU7Ii8+PHRleHQgZmlsbD0iIzAwMDAwMCIgZm9udC1mYW1pbHk9InNhbnMtc2VyaWYiIGZvbnQtc2l6ZT0iMTQiIGxlbmd0aEFkanVzdD0ic3BhY2luZyIgdGV4dExlbmd0aD0iODQiIHg9IjM1MSIgeT0iMTg3LjIzNDQiPkNyb3AgRGF0YXNldDwvdGV4dD48L2c+PCEtLWxpbmsgVXNlciB0byBJbnB1dFByb2Nlc3MtLT48ZyBpZD0ibGlua19Vc2VyX0lucHV0UHJvY2VzcyI+PHBhdGggZD0iTTM4MC4wNiw0MDUuMTggQzM5NS4xMSwzOTMuMzUgNDE4LjQ5LDM3Mi41MiA0MzEsMzQ5IEM0ODMuMDQsMjUxLjE1IDQ5MC40MywxODkuMDMgNDYzLDE1MCBDNDIwLjE4LDg5LjA3IDMzOC45NTI2LDY5LjEzODggMjc4LjA2MjYsNjIuMzA4OCAiIGZpbGw9Im5vbmUiIGlkPSJVc2VyLXRvLUlucHV0UHJvY2VzcyIgc3R5bGU9InN0cm9rZTojMTgxODE4O3N0cm9rZS13aWR0aDoxLjA7Ii8+PHBvbHlnb24gZmlsbD0iIzE4MTgxOCIgcG9pbnRzPSIyNzIuMSw2MS42NCwyODAuNTk4LDY2LjYxODMsMjc3LjA2ODgsNjIuMTk3NCwyODEuNDg5OCw1OC42NjgyLDI3Mi4xLDYxLjY0IiBzdHlsZT0ic3Ryb2tlOiMxODE4MTg7c3Ryb2tlLXdpZHRoOjEuMDsiLz48dGV4dCBmaWxsPSIjMDAwMDAwIiBmb250LWZhbWlseT0ic2Fucy1zZXJpZiIgZm9udC1zaXplPSIxMyIgbGVuZ3RoQWRqdXN0PSJzcGFjaW5nIiB0ZXh0TGVuZ3RoPSIyNDMiIHg9IjQ3OCIgeT0iMjM3LjI4OTEiPlAsTixLLFRlbXBlcmF0dXJlLCBIdW1pZGl0eSwgUmFpbmZhbGw8L3RleHQ+PC9nPjwhLS1saW5rIElucHV0UHJvY2VzcyB0byBQYXJhbVZhbGlkYXRpb24tLT48ZyBpZD0ibGlua19JbnB1dFByb2Nlc3NfUGFyYW1WYWxpZGF0aW9uIj48cGF0aCBkPSJNMjAwLjU0LDc1LjEgQzE5My41NSw5Ni4zNyAxODMuMzY1NywxMjcuMzMwNyAxNzYuMzU1NywxNDguNjMwNyAiIGZpbGw9Im5vbmUiIGlkPSJJbnB1dFByb2Nlc3MtdG8tUGFyYW1WYWxpZGF0aW9uIiBzdHlsZT0ic3Ryb2tlOiMxODE4MTg7c3Ryb2tlLXdpZHRoOjEuMDsiLz48cG9seWdvbiBmaWxsPSIjMTgxODE4IiBwb2ludHM9IjE3NC40OCwxNTQuMzMsMTgxLjA5MywxNDcuMDMxNSwxNzYuMDQzMSwxNDkuNTgwNiwxNzMuNDk0LDE0NC41MzA2LDE3NC40OCwxNTQuMzMiIHN0eWxlPSJzdHJva2U6IzE4MTgxODtzdHJva2Utd2lkdGg6MS4wOyIvPjx0ZXh0IGZpbGw9IiMwMDAwMDAiIGZvbnQtZmFtaWx5PSJzYW5zLXNlcmlmIiBmb250LXNpemU9IjEzIiBsZW5ndGhBZGp1c3Q9InNwYWNpbmciIHRleHRMZW5ndGg9IjEzOCIgeD0iMTkxIiB5PSIxMTguMjg5MSI+UHJvY2Vzc2VkIFBhcmFtZXRlcnM8L3RleHQ+PC9nPjwhLS1saW5rIFBhcmFtVmFsaWRhdGlvbiB0byBDcm9wU2VsZWN0aW9uLS0+PGcgaWQ9ImxpbmtfUGFyYW1WYWxpZGF0aW9uX0Nyb3BTZWxlY3Rpb24iPjxwYXRoIGQ9Ik0xODAuOTUsMTg5LjYgQzE5Ni4yNywyMTAuODcgMjE5LjE1MzYsMjQyLjY2MTIgMjM0LjQ5MzYsMjYzLjk2MTIgIiBmaWxsPSJub25lIiBpZD0iUGFyYW1WYWxpZGF0aW9uLXRvLUNyb3BTZWxlY3Rpb24iIHN0eWxlPSJzdHJva2U6IzE4MTgxODtzdHJva2Utd2lkdGg6MS4wOyIvPjxwb2x5Z29uIGZpbGw9IiMxODE4MTgiIHBvaW50cz0iMjM4LDI2OC44MywyMzUuOTg2MiwyNTkuMTg5MiwyMzUuMDc4LDI2NC43NzI3LDIyOS40OTQ1LDI2My44NjQ1LDIzOCwyNjguODMiIHN0eWxlPSJzdHJva2U6IzE4MTgxODtzdHJva2Utd2lkdGg6MS4wOyIvPjx0ZXh0IGZpbGw9IiMwMDAwMDAiIGZvbnQtZmFtaWx5PSJzYW5zLXNlcmlmIiBmb250LXNpemU9IjEzIiBsZW5ndGhBZGp1c3Q9InNwYWNpbmciIHRleHRMZW5ndGg9IjEwOCIgeD0iMjE1IiB5PSIyMzcuMjg5MSI+VmFsaWQgUGFyYW1ldGVyczwvdGV4dD48L2c+PCEtLWxpbmsgQ3JvcERhdGFzZXQgdG8gQ3JvcFNlbGVjdGlvbi0tPjxnIGlkPSJsaW5rX0Nyb3BEYXRhc2V0X0Nyb3BTZWxlY3Rpb24iPjxwYXRoIGQ9Ik0zNzYuMzIsMTk0LjIyIEMzNjQuODEsMjA4LjAxIDM0OC42MywyMjUuODIgMzMyLDIzOSBDMzE3LjUxLDI1MC40OSAzMDUuMTMzOCwyNTguMDg0OCAyODkuOTEzOCwyNjYuMTM0OCAiIGZpbGw9Im5vbmUiIGlkPSJDcm9wRGF0YXNldC10by1Dcm9wU2VsZWN0aW9uIiBzdHlsZT0ic3Ryb2tlOiMxODE4MTg7c3Ryb2tlLXdpZHRoOjEuMDsiLz48cG9seWdvbiBmaWxsPSIjMTgxODE4IiBwb2ludHM9IjI4NC42MSwyNjguOTQsMjk0LjQzNTksMjY4LjI2OCwyODkuMDI5OSwyNjYuNjAyMywyOTAuNjk1NiwyNjEuMTk2MiwyODQuNjEsMjY4Ljk0IiBzdHlsZT0ic3Ryb2tlOiMxODE4MTg7c3Ryb2tlLXdpZHRoOjEuMDsiLz48dGV4dCBmaWxsPSIjMDAwMDAwIiBmb250LWZhbWlseT0ic2Fucy1zZXJpZiIgZm9udC1zaXplPSIxMyIgbGVuZ3RoQWRqdXN0PSJzcGFjaW5nIiB0ZXh0TGVuZ3RoPSI2MiIgeD0iMzQ5IiB5PSIyMzcuMjg5MSI+Q3JvcCBEYXRhPC90ZXh0PjwvZz48IS0tbGluayBDcm9wU2VsZWN0aW9uIHRvIFVzZXItLT48ZyBpZD0ibGlua19Dcm9wU2VsZWN0aW9uX1VzZXIiPjxwYXRoIGQ9Ik0yNjUuMTYsMzA0LjIzIEMyODcuNzYsMzI5LjE3IDMyNS45NDA4LDM3MS4yOTQxIDM0Ny44OTA4LDM5NS41MTQxICIgZmlsbD0ibm9uZSIgaWQ9IkNyb3BTZWxlY3Rpb24tdG8tVXNlciIgc3R5bGU9InN0cm9rZTojMTgxODE4O3N0cm9rZS13aWR0aDoxLjA7Ii8+PHBvbHlnb24gZmlsbD0iIzE4MTgxOCIgcG9pbnRzPSIzNTEuOTIsMzk5Ljk2LDM0OC44NDAxLDM5MC42MDUxLDM0OC41NjI0LDM5Ni4yNTUxLDM0Mi45MTIzLDM5NS45NzczLDM1MS45MiwzOTkuOTYiIHN0eWxlPSJzdHJva2U6IzE4MTgxODtzdHJva2Utd2lkdGg6MS4wOyIvPjx0ZXh0IGZpbGw9IiMwMDAwMDAiIGZvbnQtZmFtaWx5PSJzYW5zLXNlcmlmIiBmb250LXNpemU9IjEzIiBsZW5ndGhBZGp1c3Q9InNwYWNpbmciIHRleHRMZW5ndGg9IjExNyIgeD0iMzA1IiB5PSIzNDcuMjg5MSI+UmVjb21tZW5kZWQgQ3JvcHM8L3RleHQ+PC9nPjwhLS1saW5rIFBhcmFtVmFsaWRhdGlvbiB0byBMb2dnaW5nLS0+PGcgaWQ9ImxpbmtfUGFyYW1WYWxpZGF0aW9uX0xvZ2dpbmciPjxwYXRoIGQ9Ik0xNDMuOTEsMTg5Ljc1IEMxMjEuMDYsMjA2LjY3IDg4Ljg0LDIzNS4wOSA3NSwyNjkgQzU2LjkxLDMxMy4zNCA3NC44MDgzLDM2NS4wOTkzIDg3LjI3ODMsMzkzLjA4OTMgIiBmaWxsPSJub25lIiBpZD0iUGFyYW1WYWxpZGF0aW9uLXRvLUxvZ2dpbmciIHN0eWxlPSJzdHJva2U6IzE4MTgxODtzdHJva2Utd2lkdGg6MS4wOyIvPjxwb2x5Z29uIGZpbGw9IiMxODE4MTgiIHBvaW50cz0iODkuNzIsMzk4LjU3LDg5LjcxMTIsMzg4LjcyMTEsODcuNjg1MiwzOTQuMDAyOCw4Mi40MDM2LDM5MS45NzY4LDg5LjcyLDM5OC41NyIgc3R5bGU9InN0cm9rZTojMTgxODE4O3N0cm9rZS13aWR0aDoxLjA7Ii8+PHRleHQgZmlsbD0iIzAwMDAwMCIgZm9udC1mYW1pbHk9InNhbnMtc2VyaWYiIGZvbnQtc2l6ZT0iMTMiIGxlbmd0aEFkanVzdD0ic3BhY2luZyIgdGV4dExlbmd0aD0iOTYiIHg9Ijc2IiB5PSIyOTIuMjg5MSI+TG9nIFBhcmFtZXRlcnM8L3RleHQ+PC9nPjwhLS1saW5rIENyb3BTZWxlY3Rpb24gdG8gTG9nZ2luZy0tPjxnIGlkPSJsaW5rX0Nyb3BTZWxlY3Rpb25fTG9nZ2luZyI+PHBhdGggZD0iTTIwNC42NCwzMDQuMDggQzE4Ny45MSwzMTEuNTggMTY5LjUxLDMyMS41OCAxNTUsMzM0IEMxMzMuMzUsMzUyLjUyIDExOC43NzQ4LDM3NS43NDczIDEwOS4xMjQ4LDM5My42NjczICIgZmlsbD0ibm9uZSIgaWQ9IkNyb3BTZWxlY3Rpb24tdG8tTG9nZ2luZyIgc3R5bGU9InN0cm9rZTojMTgxODE4O3N0cm9rZS13aWR0aDoxLjA7Ii8+PHBvbHlnb24gZmlsbD0iIzE4MTgxOCIgcG9pbnRzPSIxMDYuMjgsMzk4Ljk1LDExNC4wNjksMzkyLjkyMjQsMTA4LjY1MDYsMzk0LjU0NzcsMTA3LjAyNTMsMzg5LjEyOTQsMTA2LjI4LDM5OC45NSIgc3R5bGU9InN0cm9rZTojMTgxODE4O3N0cm9rZS13aWR0aDoxLjA7Ii8+PHRleHQgZmlsbD0iIzAwMDAwMCIgZm9udC1mYW1pbHk9InNhbnMtc2VyaWYiIGZvbnQtc2l6ZT0iMTMiIGxlbmd0aEFkanVzdD0ic3BhY2luZyIgdGV4dExlbmd0aD0iMTI5IiB4PSIxNTYiIHk9IjM0Ny4yODkxIj5Mb2cgUmVjb21tZW5kYXRpb25zPC90ZXh0PjwvZz48IS0tU1JDPVtYTEJCUmVDbTRCcHhBclBTU1k0X20yNk52ajJnTE9NSWpsU2pSOTBiRnYxamY0UExfaHNzbU8xSGNfZTB6a3BrcEFwTkVwWklYSWkyLWQ5YTUwZVd2UlpaUDFhc0pYanVqc0cwUlZvcDVYci1lWUtlN2Vwa3VVWUZiYm1IdVc2T3BlcGo0Y2psVDRGTVVaUDNaS0ZMWUxIeGVhUEJJU2ZKU2d0V1ZCTUVQMDdWM0ZuUTlKLWZWZDFHWnBuU1RMNGlXWENzYk9HTGxVeHRYcG5VR0xzLWJpX2I2eWNVM0JoMUswY0ZXLUdqVHpTSUppWkwxT004QkJWdXROZ2VxUTBhVnBfbVdPQUZaZ0VGNjVZbWJQTkNHUjJxSlFySUp6SjJwNl9sYzhZdFRZUlhhSUdWZTFiUFlNLXJXZHdVTXVzVFI5TjNNV3Rvcnk5dnliZDVhWDVndVkyZ1BTUS1udjFxaHhxTnROTGZsREYtZHV2SUxYTHNWdE1JLXlmQnlZVU9wRHItMDAwMF0tLT48L2c+PC9zdmc+;" vertex="1" parent="1">
            <mxGeometry x="190" y="240" width="729" height="460" as="geometry" />
          </mxCell>
        </UserObject>
      </root>
    </mxGraphModel>
  </diagram>
</mxfile>
